<svg width="195" height="48" viewBox="0 0 195 48" fill="none" xmlns="http://www.w3.org/2000/svg">
<path fill-rule="evenodd" clip-rule="evenodd" d="M19.5197 20.5015H5.06295C5.24297 21.6902 5.84355 22.7743 6.75483 23.5553C7.73885 24.3334 8.97152 24.7256 10.2227 24.6587C11.0255 24.6756 11.8231 24.526 12.5657 24.2194C13.3082 23.9129 13.9797 23.4559 14.5381 22.877L18.2594 24.7431C17.3857 25.9908 16.2254 27.0093 14.8767 27.7125C13.4154 28.3643 11.8282 28.6832 10.2293 28.6461C8.96884 28.7014 7.71048 28.4965 6.53212 28.0442C5.35377 27.5918 4.28052 26.9017 3.37882 26.0163C2.50514 25.1406 1.82129 24.0931 1.3702 22.9397C0.919103 21.7863 0.710495 20.5518 0.757459 19.3137C0.714065 18.0633 0.924005 16.8172 1.37458 15.6506C1.82515 14.484 2.50699 13.4212 3.37882 12.5266C4.2476 11.639 5.28896 10.9399 6.43828 10.4728C7.5876 10.0057 8.82035 9.78058 10.06 9.81139C11.326 9.77228 12.5866 9.99295 13.7646 10.4598C14.9425 10.9267 16.0131 11.63 16.9105 12.5266C17.8084 13.4727 18.504 14.5929 18.9548 15.8184C19.4055 17.044 19.6019 18.349 19.5319 19.6534L19.5197 20.5015ZM15.0372 16.9381C14.7643 15.9503 14.1301 15.102 13.2612 14.5625C12.3161 13.9298 11.1988 13.6064 10.063 13.6368C8.9272 13.6672 7.82869 14.05 6.91859 14.7324C6.21946 15.3324 5.66934 16.0876 5.31192 16.9381H15.0372ZM35.7569 7.18162L32.3742 10.2354C31.1902 8.53813 29.9222 7.7755 28.7382 7.7755C28.1986 7.75066 27.6652 7.89922 27.2156 8.19956C27.0358 8.32224 26.8882 8.48657 26.7851 8.67864C26.6821 8.87072 26.6267 9.08488 26.6236 9.30298C26.6356 9.73381 26.7836 10.1497 27.0463 10.4908C28.0873 11.6273 29.2185 12.6772 30.4289 13.6301C31.5611 14.4886 32.6333 15.424 33.6379 16.4297C34.4713 17.2053 35.1587 18.125 35.6672 19.1449C36.0139 20.0369 36.1863 20.9873 36.1751 21.9446C36.2003 22.8618 36.0326 23.7741 35.683 24.6219C35.3333 25.4698 34.8095 26.2343 34.1458 26.8656C32.667 28.1969 30.7278 28.8953 28.7426 28.8115C27.1553 28.8461 25.5941 28.403 24.2601 27.5394C22.8464 26.5069 21.7124 25.1362 20.9615 23.552L24.852 21.1764C26.036 23.3821 27.3893 24.3956 28.9119 24.3956C29.265 24.4202 29.6194 24.3727 29.9537 24.2562C30.288 24.1396 30.5954 23.9563 30.8572 23.7174C31.1181 23.5379 31.3315 23.2973 31.4788 23.0165C31.6261 22.7356 31.7029 22.4229 31.7026 22.1055C31.6974 21.5157 31.4881 20.9459 31.1106 20.4937C30.3062 19.5463 29.3983 18.6925 28.404 17.9483C26.4656 16.5229 24.73 14.8389 23.2454 12.9429C22.5524 11.9137 22.1705 10.7057 22.1455 9.46395C22.1288 8.65083 22.2862 7.84359 22.6071 7.09673C22.928 6.34987 23.4049 5.68077 24.0056 5.13462C24.6268 4.51661 25.3673 4.03235 26.1816 3.71149C26.996 3.39062 27.867 3.2399 28.7415 3.26858C29.9462 3.28685 31.1314 3.57671 32.2093 4.11669C33.5598 4.92508 34.7593 5.96206 35.7569 7.18162ZM52.7553 10.2354H57.2378V28.2188H52.7542V26.2672C51.9571 27.0302 51.0434 27.6602 50.0476 28.1333C49.1305 28.4879 48.1535 28.661 47.1707 28.6428C46.0329 28.6582 44.9055 28.4231 43.8682 27.9539C42.8308 27.4848 41.9086 26.7931 41.1667 25.9275C40.3203 25.036 39.6599 23.9839 39.2242 22.8329C38.7885 21.6819 38.5863 20.4553 38.6294 19.2249C38.5603 16.7326 39.4367 14.3069 41.0815 12.4378C41.835 11.5924 42.7614 10.9198 43.7976 10.466C44.8337 10.0122 45.9551 9.78776 47.0855 9.80807C48.1302 9.79184 49.167 9.99411 50.1295 10.402C51.0902 10.8558 51.9745 11.4569 52.7509 12.1836L52.7553 10.2354ZM48.0194 13.9686C47.371 13.9375 46.7238 14.0507 46.1242 14.3003C45.5246 14.5498 44.9876 14.9293 44.5515 15.4118C43.5876 16.4433 43.0703 17.816 43.113 19.2293C43.0794 20.6411 43.5954 22.0105 44.5515 23.0469C44.9912 23.5246 45.5289 23.9011 46.1276 24.1502C46.7263 24.3993 47.3717 24.5153 48.0194 24.49C48.6678 24.5211 49.315 24.4079 49.9145 24.1584C50.5141 23.9089 51.0512 23.5293 51.4872 23.0469C51.9832 22.5316 52.3671 21.9186 52.6147 21.2468C52.8623 20.5749 52.9682 19.8589 52.9257 19.1438C52.9654 18.4546 52.8576 17.7649 52.6095 17.121C52.3613 16.477 51.9787 15.8939 51.4872 15.4106C51.0512 14.9282 50.5141 14.5486 49.9145 14.2991C49.315 14.0496 48.6678 13.9375 48.0194 13.9686ZM61.1273 10.2354H65.6098V12.1015C66.4439 11.3696 67.3851 10.7706 68.4005 10.3254C69.2009 9.97761 70.0656 9.80396 70.9377 9.81584C71.7746 9.78603 72.6081 9.93724 73.3815 10.2592C74.155 10.5812 74.8503 11.0664 75.4203 11.6819C75.9958 12.3047 76.4359 13.0408 76.7125 13.8435C76.9891 14.6461 77.0962 15.4978 77.027 16.3442V28.2221H72.5444V20.3316C72.5962 18.9129 72.5114 17.4924 72.291 16.09C72.0975 15.4737 71.7479 14.9183 71.2763 14.4782C70.7489 14.1329 70.13 13.9553 69.5004 13.9686C68.6317 13.9356 67.7838 14.2393 67.1324 14.8167C66.438 15.5105 65.9666 16.3971 65.7791 17.3622C65.646 18.5733 65.5894 19.7916 65.6098 21.0099V28.2254H61.1273V10.2354ZM80.5789 10.2354H85.0648V28.8115C85.1235 30.1042 84.9515 31.3971 84.5569 32.6291C84.2415 33.4343 83.6787 34.1178 82.9502 34.5806C82.1589 35.0533 81.2493 35.2886 80.3288 35.2589C79.2029 35.1905 78.0923 34.9621 77.0303 34.5806V31.0173C77.6017 31.3315 78.239 31.506 78.8904 31.5268C79.1267 31.5468 79.3644 31.5112 79.5845 31.4227C79.8047 31.3342 80.0012 31.1954 80.1584 31.0173C80.4864 30.4222 80.6334 29.7437 80.5811 29.0657L80.5789 10.2354ZM106.796 20.5015H92.3357C92.5157 21.6902 93.1163 22.7743 94.0276 23.5553C95.0116 24.3334 96.2443 24.7256 97.4955 24.6587C98.2983 24.6756 99.0959 24.526 99.8384 24.2194C100.581 23.9129 101.252 23.4559 101.811 22.877L105.532 24.7431C104.658 25.9908 103.498 27.0093 102.149 27.7125C100.686 28.3564 99.1002 28.6749 97.5021 28.6461C96.2416 28.7014 94.9833 28.4965 93.8049 28.0442C92.6266 27.5918 91.5533 26.9017 90.6516 26.0163C89.7779 25.1406 89.0941 24.0931 88.643 22.9397C88.1919 21.7863 87.9833 20.5518 88.0302 19.3137C87.9868 18.0633 88.1968 16.8172 88.6474 15.6506C89.0979 14.484 89.7798 13.4212 90.6516 12.5266C91.5074 11.6454 92.5343 10.9498 93.6689 10.4827C94.8035 10.0157 96.0215 9.7872 97.2476 9.81139C98.527 9.76573 99.8021 9.98306 100.995 10.45C102.187 10.9169 103.272 11.6236 104.182 12.5266C105.08 13.4727 105.776 14.5929 106.226 15.8184C106.677 17.044 106.874 18.349 106.804 19.6534L106.796 20.5015ZM102.313 16.9381C102.006 15.9674 101.38 15.1298 100.537 14.5625C99.6461 13.9372 98.5807 13.6105 97.4933 13.629C96.2974 13.5881 95.1268 13.9797 94.1947 14.7324C93.4965 15.3312 92.9468 16.0849 92.5891 16.9337L102.313 16.9381ZM127.769 20.5015H113.309C113.489 21.6902 114.089 22.7743 115.001 23.5553C115.985 24.3334 117.217 24.7256 118.469 24.6587C119.27 24.6657 120.065 24.5117 120.806 24.2057C121.547 23.8997 122.22 23.4479 122.784 22.877L126.505 24.7431C125.631 25.9908 124.471 27.0093 123.123 27.7125C121.659 28.3564 120.073 28.6749 118.475 28.6461C117.215 28.7014 115.956 28.4965 114.778 28.0442C113.6 27.5918 112.526 26.9017 111.625 26.0163C110.751 25.1406 110.067 24.0931 109.616 22.9397C109.165 21.7863 108.956 20.5518 109.003 19.3137C108.96 18.0633 109.17 16.8172 109.62 15.6506C110.071 14.484 110.753 13.4212 111.625 12.5266C112.48 11.6454 113.507 10.9498 114.642 10.4827C115.777 10.0157 116.995 9.7872 118.221 9.81139C119.5 9.76573 120.775 9.98306 121.968 10.45C123.16 10.9169 124.245 11.6236 125.155 12.5266C126.053 13.4727 126.749 14.5929 127.2 15.8184C127.65 17.0439 127.847 18.349 127.777 19.6534L127.769 20.5015ZM123.286 16.9381C122.98 15.9674 122.353 15.1298 121.51 14.5625C120.619 13.9372 119.554 13.6105 118.466 13.629C117.27 13.5881 116.1 13.9797 115.168 14.7324C114.469 15.3324 113.919 16.0876 113.561 16.9381H123.286ZM128.868 10.2354H133.434L138.001 20.8411L142.568 10.2354H147.141L139.361 28.2188H136.484L128.868 10.2354ZM162.273 10.2354H166.837V28.2188H162.27V26.2672C161.518 27.0455 160.63 27.6781 159.649 28.1333C158.73 28.4819 157.754 28.6547 156.772 28.6428C155.634 28.6582 154.507 28.4231 153.47 27.9539C152.432 27.4848 151.51 26.7931 150.768 25.9275C149.922 25.036 149.261 23.9839 148.826 22.8329C148.39 21.6819 148.188 20.4553 148.231 19.2249C148.162 16.7326 149.038 14.3069 150.683 12.4378C151.433 11.5879 152.359 10.9122 153.395 10.458C154.432 10.0039 155.556 9.78204 156.687 9.80807C157.705 9.79106 158.714 9.9936 159.647 10.402C160.63 10.8155 161.521 11.4212 162.268 12.1836L162.273 10.2354ZM157.537 13.9686C156.889 13.9434 156.244 14.0593 155.645 14.3084C155.046 14.5576 154.508 14.934 154.069 15.4118C153.603 15.9268 153.243 16.5293 153.011 17.1846C152.779 17.8399 152.678 18.5348 152.716 19.2293C152.682 20.6411 153.198 22.0104 154.154 23.0469C154.59 23.5293 155.127 23.9089 155.727 24.1584C156.326 24.4079 156.973 24.5211 157.622 24.49C158.27 24.5153 158.915 24.3993 159.514 24.1502C160.112 23.9011 160.65 23.5246 161.09 23.0469C162.059 21.9842 162.575 20.5834 162.528 19.1438C162.552 18.4564 162.437 17.7711 162.19 17.1295C161.943 16.4878 161.568 15.9031 161.09 15.4106C160.637 14.9263 160.085 14.5464 159.472 14.2972C158.859 14.048 158.198 13.9367 157.537 13.9686ZM170.645 10.2354H175.211V12.1015C176.03 11.3894 176.941 10.7902 177.918 10.3198C178.723 9.98778 179.584 9.81477 180.455 9.81029C181.303 9.78983 182.146 9.94497 182.932 10.266C183.718 10.5871 184.429 11.0672 185.022 11.6763C186.122 12.9684 186.669 14.644 186.544 16.3387V28.2165H182.147V20.3261C182.23 18.9033 182.116 17.4759 181.808 16.0845C181.673 15.4631 181.348 14.8996 180.878 14.4726C180.35 14.1274 179.731 13.9498 179.102 13.9631C178.233 13.9301 177.385 14.2338 176.734 14.8112C176.039 15.505 175.568 16.3916 175.38 17.3566C175.202 18.5637 175.145 19.7858 175.211 21.0043V28.2198H170.645V10.2354ZM189.842 10.2354H194.324V28.2188H189.842V10.2354Z" fill="#FF9933"/>
<path fill-rule="evenodd" clip-rule="evenodd" d="M74.1592 0.307876C78.8951 -0.625701 84.6458 2.08956 83.547 8.53801C83.4629 8.62238 83.4629 8.87768 83.3777 8.96205C83.2925 9.04641 82.955 9.13189 82.955 8.96205C82.955 8.79221 83.0391 8.19833 83.0391 8.02848C83.0391 7.85864 82.955 6.16244 81.8551 6.16244C80.974 6.30215 80.0719 6.21467 79.2337 5.90823C78.0031 5.45026 76.8999 4.70272 76.0169 3.72842C75.1339 2.75411 74.4968 1.58147 74.1592 0.308977V0.307876Z" fill="#138808"/>
<path fill-rule="evenodd" clip-rule="evenodd" d="M75.5967 1.49561C78.8952 2.42918 81.178 3.87118 82.1927 5.39865C80.3081 3.62524 78.0555 2.29233 75.5967 1.49561Z" fill="white"/>
<path fill-rule="evenodd" clip-rule="evenodd" d="M183.086 0.307876C187.906 -0.625701 193.572 2.08956 192.474 8.53801C192.474 8.62238 192.474 8.87768 192.39 8.96205C192.306 9.04641 191.967 9.13189 191.967 8.96205C191.967 8.79221 192.051 8.19833 192.051 8.02848C192.051 7.85864 191.967 6.16244 190.867 6.16244C189.958 6.29741 189.029 6.2102 188.16 5.90823C186.937 5.43835 185.84 4.68695 184.959 3.71446C184.078 2.74197 183.436 1.57553 183.086 0.308977V0.307876Z" fill="#138808"/>
<path fill-rule="evenodd" clip-rule="evenodd" d="M184.608 1.49559C187.907 2.42917 190.19 3.87117 191.12 5.39864C189.267 3.62679 187.042 2.29322 184.608 1.49559Z" fill="white"/>
<path d="M11.1046 37.8106V47.8095H9.38092L4.89655 40.6468V47.8095H3.17285V37.8106H4.89655L9.39466 44.987V37.8106H11.1046Z" fill="#000080"/>
<path d="M17.1822 46.3192V42.7757C17.1822 42.5102 17.1341 42.2813 17.038 42.089C16.9419 41.8967 16.7954 41.7479 16.5985 41.6426C16.4062 41.5373 16.1636 41.4846 15.8706 41.4846C15.6004 41.4846 15.3669 41.5304 15.1701 41.622C14.9732 41.7136 14.8199 41.8372 14.71 41.9928C14.6001 42.1485 14.5452 42.3247 14.5452 42.5216H12.897C12.897 42.2286 12.968 41.9448 13.1099 41.6701C13.2518 41.3954 13.4578 41.1504 13.7279 40.9353C13.9981 40.7201 14.3208 40.5507 14.6962 40.4271C15.0717 40.3035 15.4928 40.2417 15.9598 40.2417C16.5184 40.2417 17.0128 40.3355 17.4432 40.5232C17.8781 40.7109 18.2192 40.9948 18.4664 41.3748C18.7182 41.7502 18.8441 42.2217 18.8441 42.7894V46.0926C18.8441 46.4314 18.867 46.7359 18.9128 47.006C18.9631 47.2715 19.0341 47.5027 19.1257 47.6996V47.8095H17.4294C17.3516 47.6309 17.2898 47.4043 17.244 47.1296C17.2028 46.8503 17.1822 46.5802 17.1822 46.3192ZM17.4226 43.2907L17.4363 44.314H16.2483C15.9415 44.314 15.6714 44.3437 15.4379 44.4033C15.2044 44.4582 15.0098 44.5406 14.8542 44.6505C14.6985 44.7604 14.5818 44.8931 14.504 45.0488C14.4261 45.2044 14.3872 45.3807 14.3872 45.5776C14.3872 45.7744 14.433 45.9553 14.5246 46.1201C14.6161 46.2803 14.7489 46.4062 14.9229 46.4978C15.1014 46.5894 15.3166 46.6351 15.5684 46.6351C15.9072 46.6351 16.2025 46.5665 16.4543 46.4291C16.7107 46.2872 16.9121 46.1155 17.0586 45.9141C17.2051 45.7081 17.2829 45.5135 17.2921 45.3303L17.8277 46.0652C17.7728 46.2529 17.679 46.4543 17.5462 46.6695C17.4134 46.8847 17.2394 47.0907 17.0243 47.2875C16.8137 47.4798 16.5596 47.6378 16.262 47.7614C15.969 47.885 15.6302 47.9468 15.2456 47.9468C14.7603 47.9468 14.3277 47.8507 13.9477 47.6584C13.5677 47.4615 13.2701 47.1983 13.0549 46.8686C12.8398 46.5344 12.7322 46.1567 12.7322 45.7355C12.7322 45.3418 12.8054 44.9938 12.9519 44.6917C13.103 44.3849 13.3228 44.1286 13.6112 43.9225C13.9042 43.7165 14.2613 43.5609 14.6825 43.4556C15.1037 43.3457 15.5844 43.2907 16.1246 43.2907H17.4226Z" fill="#000080"/>
<path d="M23.9809 40.379V41.5877H19.7918V40.379H23.9809ZM21.0005 38.5592H22.6555V45.7561C22.6555 45.985 22.6875 46.1613 22.7516 46.2849C22.8203 46.4039 22.9142 46.4841 23.0332 46.5253C23.1522 46.5665 23.2919 46.5871 23.4521 46.5871C23.5665 46.5871 23.6764 46.5802 23.7817 46.5665C23.887 46.5527 23.9717 46.539 24.0358 46.5253L24.0427 47.7889C23.9053 47.8301 23.7451 47.8667 23.562 47.8987C23.3834 47.9308 23.1774 47.9468 22.9439 47.9468C22.5639 47.9468 22.2274 47.8804 21.9344 47.7477C21.6414 47.6103 21.4125 47.3883 21.2477 47.0815C21.0829 46.7748 21.0005 46.3673 21.0005 45.8591V38.5592Z" fill="#000080"/>
<path d="M27.03 40.379V47.8095H25.3681V40.379H27.03ZM25.2582 38.4287C25.2582 38.1769 25.3406 37.9686 25.5054 37.8037C25.6748 37.6344 25.9083 37.5497 26.2059 37.5497C26.4989 37.5497 26.7301 37.6344 26.8995 37.8037C27.0689 37.9686 27.1536 38.1769 27.1536 38.4287C27.1536 38.6759 27.0689 38.8819 26.8995 39.0467C26.7301 39.2116 26.4989 39.294 26.2059 39.294C25.9083 39.294 25.6748 39.2116 25.5054 39.0467C25.3406 38.8819 25.2582 38.6759 25.2582 38.4287Z" fill="#000080"/>
<path d="M28.5271 44.1766V44.0187C28.5271 43.483 28.6049 42.9863 28.7605 42.5285C28.9162 42.0661 29.1405 41.6655 29.4335 41.3267C29.7311 40.9833 30.0928 40.7178 30.5186 40.5301C30.9489 40.3378 31.4342 40.2417 31.9745 40.2417C32.5193 40.2417 33.0046 40.3378 33.4303 40.5301C33.8607 40.7178 34.2247 40.9833 34.5222 41.3267C34.8198 41.6655 35.0464 42.0661 35.2021 42.5285C35.3578 42.9863 35.4356 43.483 35.4356 44.0187V44.1766C35.4356 44.7123 35.3578 45.209 35.2021 45.6668C35.0464 46.1247 34.8198 46.5253 34.5222 46.8686C34.2247 47.2074 33.863 47.473 33.4372 47.6652C33.0114 47.8529 32.5284 47.9468 31.9882 47.9468C31.4434 47.9468 30.9558 47.8529 30.5254 47.6652C30.0997 47.473 29.738 47.2074 29.4404 46.8686C29.1428 46.5253 28.9162 46.1247 28.7605 45.6668C28.6049 45.209 28.5271 44.7123 28.5271 44.1766ZM30.1821 44.0187V44.1766C30.1821 44.5108 30.2164 44.8267 30.2851 45.1243C30.3538 45.4219 30.4613 45.6829 30.6079 45.9072C30.7544 46.1315 30.9421 46.3078 31.171 46.436C31.3999 46.5642 31.6723 46.6283 31.9882 46.6283C32.2949 46.6283 32.5605 46.5642 32.7848 46.436C33.0137 46.3078 33.2014 46.1315 33.3479 45.9072C33.4944 45.6829 33.602 45.4219 33.6707 45.1243C33.7439 44.8267 33.7806 44.5108 33.7806 44.1766V44.0187C33.7806 43.6891 33.7439 43.3777 33.6707 43.0847C33.602 42.7871 33.4921 42.5239 33.3411 42.295C33.1945 42.0661 33.0068 41.8875 32.7779 41.7593C32.5536 41.6266 32.2858 41.5602 31.9745 41.5602C31.6631 41.5602 31.393 41.6266 31.1641 41.7593C30.9398 41.8875 30.7544 42.0661 30.6079 42.295C30.4613 42.5239 30.3538 42.7871 30.2851 43.0847C30.2164 43.3777 30.1821 43.6891 30.1821 44.0187Z" fill="#000080"/>
<path d="M38.4641 41.9654V47.8095H36.8091V40.379H38.3679L38.4641 41.9654ZM38.1688 43.8195L37.6331 43.8127C37.6377 43.2862 37.711 42.8032 37.8529 42.3637C37.9994 41.9241 38.2008 41.5464 38.4572 41.2305C38.7182 40.9147 39.0295 40.672 39.3912 40.5026C39.7529 40.3286 40.1557 40.2417 40.5998 40.2417C40.9569 40.2417 41.2797 40.292 41.5681 40.3927C41.8611 40.4889 42.1106 40.6468 42.3167 40.8666C42.5273 41.0863 42.6875 41.3725 42.7974 41.725C42.9072 42.0729 42.9622 42.501 42.9622 43.0092V47.8095H41.3003V43.0023C41.3003 42.6452 41.2476 42.3637 41.1423 42.1576C41.0416 41.947 40.8928 41.7982 40.696 41.7113C40.5037 41.6197 40.2633 41.5739 39.9749 41.5739C39.691 41.5739 39.437 41.6334 39.2126 41.7525C38.9883 41.8715 38.7983 42.034 38.6426 42.24C38.4916 42.4461 38.3748 42.6841 38.2924 42.9543C38.21 43.2244 38.1688 43.5128 38.1688 43.8195Z" fill="#000080"/>
<path d="M48.8406 46.3192V42.7757C48.8406 42.5102 48.7926 42.2813 48.6964 42.089C48.6003 41.8967 48.4538 41.7479 48.2569 41.6426C48.0646 41.5373 47.822 41.4846 47.529 41.4846C47.2588 41.4846 47.0254 41.5304 46.8285 41.622C46.6316 41.7136 46.4783 41.8372 46.3684 41.9928C46.2585 42.1485 46.2036 42.3247 46.2036 42.5216H44.5554C44.5554 42.2286 44.6264 41.9448 44.7683 41.6701C44.9102 41.3954 45.1162 41.1504 45.3864 40.9353C45.6565 40.7201 45.9792 40.5507 46.3547 40.4271C46.7301 40.3035 47.1513 40.2417 47.6182 40.2417C48.1768 40.2417 48.6712 40.3355 49.1016 40.5232C49.5365 40.7109 49.8776 40.9948 50.1248 41.3748C50.3766 41.7502 50.5025 42.2217 50.5025 42.7894V46.0926C50.5025 46.4314 50.5254 46.7359 50.5712 47.006C50.6216 47.2715 50.6925 47.5027 50.7841 47.6996V47.8095H49.0879C49.01 47.6309 48.9482 47.4043 48.9024 47.1296C48.8612 46.8503 48.8406 46.5802 48.8406 46.3192ZM49.081 43.2907L49.0947 44.314H47.9067C47.5999 44.314 47.3298 44.3437 47.0963 44.4033C46.8628 44.4582 46.6683 44.5406 46.5126 44.6505C46.3569 44.7604 46.2402 44.8931 46.1624 45.0488C46.0845 45.2044 46.0456 45.3807 46.0456 45.5776C46.0456 45.7744 46.0914 45.9553 46.183 46.1201C46.2745 46.2803 46.4073 46.4062 46.5813 46.4978C46.7598 46.5894 46.975 46.6351 47.2268 46.6351C47.5656 46.6351 47.8609 46.5665 48.1127 46.4291C48.3691 46.2872 48.5705 46.1155 48.717 45.9141C48.8635 45.7081 48.9413 45.5135 48.9505 45.3303L49.4862 46.0652C49.4312 46.2529 49.3374 46.4543 49.2046 46.6695C49.0718 46.8847 48.8979 47.0907 48.6827 47.2875C48.4721 47.4798 48.218 47.6378 47.9204 47.7614C47.6274 47.885 47.2886 47.9468 46.904 47.9468C46.4187 47.9468 45.9861 47.8507 45.6061 47.6584C45.2261 47.4615 44.9285 47.1983 44.7134 46.8686C44.4982 46.5344 44.3906 46.1567 44.3906 45.7355C44.3906 45.3418 44.4638 44.9938 44.6103 44.6917C44.7614 44.3849 44.9812 44.1286 45.2696 43.9225C45.5626 43.7165 45.9197 43.5609 46.3409 43.4556C46.7621 43.3457 47.2428 43.2907 47.7831 43.2907H49.081Z" fill="#000080"/>
<path d="M54.0049 37.2612V47.8095H52.343V37.2612H54.0049Z" fill="#000080"/>
<path d="M63.2689 37.8106V47.8095H61.5589V37.8106H63.2689ZM66.4073 37.8106V39.1841H58.448V37.8106H66.4073Z" fill="#000080"/>
<path d="M70.1774 47.9468C69.6281 47.9468 69.1313 47.8575 68.6872 47.679C68.2477 47.4958 67.8723 47.2418 67.561 46.9167C67.2542 46.5916 67.0185 46.2094 66.8536 45.7699C66.6888 45.3303 66.6064 44.8565 66.6064 44.3483V44.0736C66.6064 43.4922 66.6911 42.9657 66.8605 42.4941C67.0299 42.0226 67.2657 41.6197 67.5678 41.2855C67.87 40.9467 68.2271 40.688 68.6392 40.5095C69.0512 40.3309 69.4976 40.2417 69.9783 40.2417C70.5094 40.2417 70.974 40.3309 71.3724 40.5095C71.7707 40.688 72.1003 40.9398 72.3612 41.2649C72.6268 41.5854 72.8236 41.9676 72.9518 42.4117C73.0846 42.8558 73.151 43.3457 73.151 43.8813V44.5887H67.4099V43.4006H71.5166V43.2701C71.5074 42.9726 71.4479 42.6933 71.338 42.4323C71.2327 42.1714 71.0702 41.9608 70.8504 41.8005C70.6307 41.6403 70.3377 41.5602 69.9714 41.5602C69.6967 41.5602 69.4518 41.6197 69.2366 41.7387C69.026 41.8532 68.8497 42.0203 68.7078 42.24C68.5659 42.4598 68.456 42.7253 68.3782 43.0367C68.3049 43.3434 68.2683 43.6891 68.2683 44.0736V44.3483C68.2683 44.6734 68.3118 44.9755 68.3988 45.2548C68.4904 45.5295 68.6231 45.7699 68.7971 45.9759C68.9711 46.1819 69.1817 46.3444 69.4289 46.4635C69.6761 46.5779 69.9577 46.6351 70.2736 46.6351C70.6719 46.6351 71.0267 46.555 71.338 46.3948C71.6493 46.2345 71.9195 46.0079 72.1484 45.7149L73.0205 46.5596C72.8603 46.7931 72.652 47.0174 72.3956 47.2326C72.1392 47.4432 71.8256 47.6149 71.4548 47.7477C71.0885 47.8804 70.6627 47.9468 70.1774 47.9468Z" fill="#000080"/>
<path d="M76.2138 37.2612V47.8095H74.5519V37.2612H76.2138Z" fill="#000080"/>
<path d="M81.3025 47.9468C80.7531 47.9468 80.2564 47.8575 79.8123 47.679C79.3728 47.4958 78.9974 47.2418 78.6861 46.9167C78.3793 46.5916 78.1435 46.2094 77.9787 45.7699C77.8139 45.3303 77.7315 44.8565 77.7315 44.3483V44.0736C77.7315 43.4922 77.8162 42.9657 77.9856 42.4941C78.155 42.0226 78.3908 41.6197 78.6929 41.2855C78.9951 40.9467 79.3522 40.688 79.7642 40.5095C80.1763 40.3309 80.6226 40.2417 81.1034 40.2417C81.6344 40.2417 82.0991 40.3309 82.4974 40.5095C82.8957 40.688 83.2254 40.9398 83.4863 41.2649C83.7519 41.5854 83.9487 41.9676 84.0769 42.4117C84.2097 42.8558 84.2761 43.3457 84.2761 43.8813V44.5887H78.535V43.4006H82.6416V43.2701C82.6325 42.9726 82.573 42.6933 82.4631 42.4323C82.3578 42.1714 82.1953 41.9608 81.9755 41.8005C81.7558 41.6403 81.4628 41.5602 81.0965 41.5602C80.8218 41.5602 80.5769 41.6197 80.3617 41.7387C80.1511 41.8532 79.9748 42.0203 79.8329 42.24C79.691 42.4598 79.5811 42.7253 79.5033 43.0367C79.43 43.3434 79.3934 43.6891 79.3934 44.0736V44.3483C79.3934 44.6734 79.4369 44.9755 79.5239 45.2548C79.6154 45.5295 79.7482 45.7699 79.9222 45.9759C80.0962 46.1819 80.3068 46.3444 80.554 46.4635C80.8012 46.5779 81.0828 46.6351 81.3987 46.6351C81.797 46.6351 82.1518 46.555 82.4631 46.3948C82.7744 46.2345 83.0445 46.0079 83.2734 45.7149L84.1456 46.5596C83.9854 46.7931 83.777 47.0174 83.5207 47.2326C83.2643 47.4432 82.9507 47.6149 82.5798 47.7477C82.2136 47.8804 81.7878 47.9468 81.3025 47.9468Z" fill="#000080"/>
<path d="M87.2222 41.8898V47.8095H85.5671V40.379H87.126L87.2222 41.8898ZM86.9543 43.8195L86.3912 43.8127C86.3912 43.2999 86.4553 42.8261 86.5835 42.3911C86.7117 41.9562 86.8994 41.5785 87.1466 41.258C87.3938 40.933 87.7006 40.6835 88.0668 40.5095C88.4377 40.3309 88.8657 40.2417 89.351 40.2417C89.6898 40.2417 89.9989 40.292 90.2781 40.3927C90.562 40.4889 90.8069 40.6422 91.0129 40.8528C91.2235 41.0634 91.3838 41.3336 91.4936 41.6632C91.6081 41.9928 91.6653 42.3911 91.6653 42.8581V47.8095H90.0103V43.0023C90.0103 42.6406 89.9554 42.3568 89.8455 42.1508C89.7402 41.9448 89.5868 41.7982 89.3854 41.7113C89.1885 41.6197 88.9527 41.5739 88.678 41.5739C88.3667 41.5739 88.1012 41.6334 87.8814 41.7525C87.6662 41.8715 87.49 42.034 87.3526 42.24C87.2153 42.4461 87.1146 42.6841 87.0505 42.9543C86.9864 43.2244 86.9543 43.5128 86.9543 43.8195ZM91.5623 43.38L90.7863 43.5517C90.7863 43.103 90.8481 42.6796 90.9717 42.2813C91.0999 41.8784 91.2853 41.5258 91.528 41.2237C91.7752 40.9169 92.0797 40.6766 92.4413 40.5026C92.803 40.3286 93.2173 40.2417 93.6843 40.2417C94.0643 40.2417 94.4031 40.2943 94.7007 40.3996C95.0028 40.5003 95.2592 40.6606 95.4698 40.8803C95.6804 41.1001 95.8407 41.3862 95.9505 41.7387C96.0604 42.0867 96.1154 42.5079 96.1154 43.0023V47.8095H94.4535V42.9955C94.4535 42.62 94.3985 42.3293 94.2887 42.1233C94.1834 41.9173 94.0323 41.7754 93.8354 41.6975C93.6385 41.6151 93.4028 41.5739 93.1281 41.5739C92.8717 41.5739 92.6451 41.622 92.4482 41.7181C92.2559 41.8097 92.0934 41.9402 91.9606 42.1096C91.8278 42.2744 91.7271 42.4644 91.6585 42.6796C91.5944 42.8947 91.5623 43.1282 91.5623 43.38Z" fill="#000080"/>
<path d="M101.094 47.9468C100.545 47.9468 100.048 47.8575 99.604 47.679C99.1645 47.4958 98.789 47.2418 98.4777 46.9167C98.171 46.5916 97.9352 46.2094 97.7704 45.7699C97.6056 45.3303 97.5232 44.8565 97.5232 44.3483V44.0736C97.5232 43.4922 97.6079 42.9657 97.7773 42.4941C97.9466 42.0226 98.1824 41.6197 98.4846 41.2855C98.7868 40.9467 99.1439 40.688 99.5559 40.5095C99.9679 40.3309 100.414 40.2417 100.895 40.2417C101.426 40.2417 101.891 40.3309 102.289 40.5095C102.687 40.688 103.017 40.9398 103.278 41.2649C103.544 41.5854 103.74 41.9676 103.869 42.4117C104.001 42.8558 104.068 43.3457 104.068 43.8813V44.5887H98.3266V43.4006H102.433V43.2701C102.424 42.9726 102.365 42.6933 102.255 42.4323C102.149 42.1714 101.987 41.9608 101.767 41.8005C101.547 41.6403 101.254 41.5602 100.888 41.5602C100.613 41.5602 100.369 41.6197 100.153 41.7387C99.9428 41.8532 99.7665 42.0203 99.6246 42.24C99.4826 42.4598 99.3728 42.7253 99.2949 43.0367C99.2217 43.3434 99.1851 43.6891 99.1851 44.0736V44.3483C99.1851 44.6734 99.2286 44.9755 99.3155 45.2548C99.4071 45.5295 99.5399 45.7699 99.7138 45.9759C99.8878 46.1819 100.098 46.3444 100.346 46.4635C100.593 46.5779 100.874 46.6351 101.19 46.6351C101.589 46.6351 101.943 46.555 102.255 46.3948C102.566 46.2345 102.836 46.0079 103.065 45.7149L103.937 46.5596C103.777 46.7931 103.569 47.0174 103.312 47.2326C103.056 47.4432 102.742 47.6149 102.371 47.7477C102.005 47.8804 101.579 47.9468 101.094 47.9468Z" fill="#000080"/>
<path d="M109.891 46.2712V37.2612H111.553V47.8095H110.049L109.891 46.2712ZM105.057 44.1766V44.0324C105.057 43.4693 105.123 42.9565 105.256 42.4941C105.389 42.0272 105.581 41.6266 105.833 41.2924C106.084 40.9536 106.391 40.6949 106.753 40.5163C107.115 40.3332 107.522 40.2417 107.975 40.2417C108.424 40.2417 108.818 40.3286 109.156 40.5026C109.495 40.6766 109.784 40.9261 110.022 41.2512C110.26 41.5716 110.45 41.9562 110.592 42.4049C110.734 42.849 110.834 43.3434 110.894 43.8882V44.3483C110.834 44.8794 110.734 45.3647 110.592 45.8042C110.45 46.2437 110.26 46.6237 110.022 46.9442C109.784 47.2646 109.493 47.5119 109.15 47.6858C108.811 47.8598 108.415 47.9468 107.962 47.9468C107.513 47.9468 107.108 47.8529 106.746 47.6652C106.389 47.4775 106.084 47.2143 105.833 46.8755C105.581 46.5367 105.389 46.1384 105.256 45.6806C105.123 45.2182 105.057 44.7169 105.057 44.1766ZM106.712 44.0324V44.1766C106.712 44.5154 106.741 44.8313 106.801 45.1243C106.865 45.4173 106.963 45.676 107.096 45.9003C107.229 46.1201 107.401 46.2941 107.611 46.4223C107.826 46.5459 108.083 46.6077 108.38 46.6077C108.756 46.6077 109.065 46.5253 109.308 46.3604C109.55 46.1956 109.74 45.9736 109.877 45.6943C110.019 45.4105 110.116 45.0946 110.166 44.7466V43.5036C110.138 43.2335 110.081 42.9817 109.994 42.7482C109.912 42.5147 109.8 42.311 109.658 42.137C109.516 41.9585 109.34 41.8211 109.129 41.725C108.923 41.6243 108.678 41.5739 108.394 41.5739C108.092 41.5739 107.836 41.638 107.625 41.7662C107.414 41.8944 107.24 42.0707 107.103 42.295C106.97 42.5193 106.872 42.7803 106.808 43.0779C106.744 43.3754 106.712 43.6936 106.712 44.0324Z" fill="#000080"/>
<path d="M115.055 40.379V47.8095H113.394V40.379H115.055ZM113.284 38.4287C113.284 38.1769 113.366 37.9686 113.531 37.8037C113.7 37.6344 113.934 37.5497 114.231 37.5497C114.524 37.5497 114.756 37.6344 114.925 37.8037C115.094 37.9686 115.179 38.1769 115.179 38.4287C115.179 38.6759 115.094 38.8819 114.925 39.0467C114.756 39.2116 114.524 39.294 114.231 39.294C113.934 39.294 113.7 39.2116 113.531 39.0467C113.366 38.8819 113.284 38.6759 113.284 38.4287Z" fill="#000080"/>
<path d="M119.904 46.6283C120.174 46.6283 120.417 46.5756 120.632 46.4703C120.851 46.3604 121.028 46.2094 121.161 46.0171C121.298 45.8248 121.373 45.6028 121.387 45.351H122.946C122.937 45.8317 122.795 46.2689 122.52 46.6626C122.246 47.0563 121.882 47.3699 121.428 47.6034C120.975 47.8323 120.474 47.9468 119.924 47.9468C119.357 47.9468 118.862 47.8507 118.441 47.6584C118.02 47.4615 117.67 47.1914 117.39 46.848C117.111 46.5047 116.9 46.1086 116.759 45.66C116.621 45.2113 116.553 44.7306 116.553 44.2178V43.9775C116.553 43.4647 116.621 42.984 116.759 42.5353C116.9 42.0821 117.111 41.6838 117.39 41.3404C117.67 40.9971 118.02 40.7292 118.441 40.5369C118.862 40.3401 119.354 40.2417 119.918 40.2417C120.513 40.2417 121.035 40.3607 121.483 40.5988C121.932 40.8322 122.284 41.1596 122.541 41.5808C122.802 41.9974 122.937 42.4827 122.946 43.0367H121.387C121.373 42.762 121.305 42.5147 121.181 42.295C121.062 42.0707 120.893 41.8921 120.673 41.7593C120.458 41.6266 120.199 41.5602 119.897 41.5602C119.563 41.5602 119.286 41.6289 119.066 41.7662C118.846 41.899 118.675 42.0821 118.551 42.3156C118.427 42.5445 118.338 42.8032 118.283 43.0916C118.233 43.3754 118.208 43.6707 118.208 43.9775V44.2178C118.208 44.5246 118.233 44.8222 118.283 45.1106C118.333 45.399 118.42 45.6577 118.544 45.8866C118.672 46.1109 118.846 46.2918 119.066 46.4291C119.286 46.5619 119.565 46.6283 119.904 46.6283Z" fill="#000080"/>
<path d="M125.988 40.379V47.8095H124.326V40.379H125.988ZM124.216 38.4287C124.216 38.1769 124.299 37.9686 124.464 37.8037C124.633 37.6344 124.867 37.5497 125.164 37.5497C125.457 37.5497 125.688 37.6344 125.858 37.8037C126.027 37.9686 126.112 38.1769 126.112 38.4287C126.112 38.6759 126.027 38.8819 125.858 39.0467C125.688 39.2116 125.457 39.294 125.164 39.294C124.867 39.294 124.633 39.2116 124.464 39.0467C124.299 38.8819 124.216 38.6759 124.216 38.4287Z" fill="#000080"/>
<path d="M129.443 41.9654V47.8095H127.788V40.379H129.346L129.443 41.9654ZM129.147 43.8195L128.612 43.8127C128.616 43.2862 128.689 42.8032 128.831 42.3637C128.978 41.9241 129.179 41.5464 129.436 41.2305C129.697 40.9147 130.008 40.672 130.37 40.5026C130.731 40.3286 131.134 40.2417 131.578 40.2417C131.935 40.2417 132.258 40.292 132.547 40.3927C132.84 40.4889 133.089 40.6468 133.295 40.8666C133.506 41.0863 133.666 41.3725 133.776 41.725C133.886 42.0729 133.941 42.501 133.941 43.0092V47.8095H132.279V43.0023C132.279 42.6452 132.226 42.3637 132.121 42.1576C132.02 41.947 131.871 41.7982 131.674 41.7113C131.482 41.6197 131.242 41.5739 130.953 41.5739C130.67 41.5739 130.415 41.6334 130.191 41.7525C129.967 41.8715 129.777 42.034 129.621 42.24C129.47 42.4461 129.353 42.6841 129.271 42.9543C129.188 43.2244 129.147 43.5128 129.147 43.8195Z" fill="#000080"/>
<path d="M138.906 47.9468C138.356 47.9468 137.86 47.8575 137.416 47.679C136.976 47.4958 136.601 47.2418 136.289 46.9167C135.983 46.5916 135.747 46.2094 135.582 45.7699C135.417 45.3303 135.335 44.8565 135.335 44.3483V44.0736C135.335 43.4922 135.419 42.9657 135.589 42.4941C135.758 42.0226 135.994 41.6197 136.296 41.2855C136.598 40.9467 136.955 40.688 137.367 40.5095C137.779 40.3309 138.226 40.2417 138.707 40.2417C139.238 40.2417 139.702 40.3309 140.101 40.5095C140.499 40.688 140.829 40.9398 141.09 41.2649C141.355 41.5854 141.552 41.9676 141.68 42.4117C141.813 42.8558 141.879 43.3457 141.879 43.8813V44.5887H136.138V43.4006H140.245V43.2701C140.236 42.9726 140.176 42.6933 140.066 42.4323C139.961 42.1714 139.798 41.9608 139.579 41.8005C139.359 41.6403 139.066 41.5602 138.7 41.5602C138.425 41.5602 138.18 41.6197 137.965 41.7387C137.754 41.8532 137.578 42.0203 137.436 42.24C137.294 42.4598 137.184 42.7253 137.106 43.0367C137.033 43.3434 136.997 43.6891 136.997 44.0736V44.3483C136.997 44.6734 137.04 44.9755 137.127 45.2548C137.219 45.5295 137.351 45.7699 137.525 45.9759C137.699 46.1819 137.91 46.3444 138.157 46.4635C138.404 46.5779 138.686 46.6351 139.002 46.6351C139.4 46.6351 139.755 46.555 140.066 46.3948C140.378 46.2345 140.648 46.0079 140.877 45.7149L141.749 46.5596C141.589 46.7931 141.38 47.0174 141.124 47.2326C140.867 47.4432 140.554 47.6149 140.183 47.7477C139.817 47.8804 139.391 47.9468 138.906 47.9468Z" fill="#000080"/>
<path d="M152.098 45.2342C152.098 45.0282 152.066 44.8451 152.002 44.6848C151.942 44.5246 151.835 44.3781 151.679 44.2453C151.523 44.1125 151.304 43.9844 151.02 43.8607C150.74 43.7326 150.383 43.6021 149.948 43.4693C149.472 43.3228 149.033 43.1603 148.63 42.9817C148.232 42.7986 147.884 42.588 147.586 42.3499C147.288 42.1073 147.057 41.8303 146.892 41.519C146.728 41.2031 146.645 40.8391 146.645 40.4271C146.645 40.0196 146.73 39.6488 146.899 39.3146C147.073 38.9804 147.318 38.6919 147.634 38.4493C147.955 38.2021 148.332 38.0121 148.767 37.8793C149.202 37.7419 149.683 37.6733 150.209 37.6733C150.951 37.6733 151.59 37.8106 152.125 38.0853C152.666 38.36 153.08 38.7286 153.368 39.191C153.661 39.6534 153.808 40.1638 153.808 40.7224H152.098C152.098 40.3927 152.027 40.102 151.885 39.8502C151.748 39.5938 151.537 39.3924 151.253 39.2459C150.974 39.0994 150.619 39.0261 150.189 39.0261C149.781 39.0261 149.442 39.0879 149.172 39.2116C148.902 39.3352 148.701 39.5023 148.568 39.7129C148.435 39.9235 148.369 40.1615 148.369 40.4271C148.369 40.6148 148.412 40.7865 148.499 40.9421C148.586 41.0932 148.719 41.2351 148.898 41.3679C149.076 41.4961 149.301 41.6174 149.571 41.7319C149.841 41.8463 150.159 41.9562 150.525 42.0615C151.079 42.2263 151.562 42.4094 151.974 42.6109C152.386 42.8077 152.73 43.0321 153.004 43.2839C153.279 43.5357 153.485 43.8218 153.622 44.1423C153.76 44.4582 153.828 44.8176 153.828 45.2205C153.828 45.6417 153.744 46.0217 153.574 46.3604C153.405 46.6947 153.162 46.9808 152.846 47.2189C152.535 47.4524 152.16 47.6332 151.72 47.7614C151.285 47.885 150.8 47.9468 150.264 47.9468C149.784 47.9468 149.31 47.8827 148.843 47.7545C148.38 47.6263 147.959 47.4318 147.579 47.1708C147.199 46.9053 146.897 46.5756 146.673 46.1819C146.448 45.7836 146.336 45.3189 146.336 44.7878H148.06C148.06 45.1129 148.115 45.3899 148.225 45.6188C148.339 45.8477 148.497 46.0354 148.699 46.1819C148.9 46.3238 149.133 46.4291 149.399 46.4978C149.669 46.5665 149.958 46.6008 150.264 46.6008C150.667 46.6008 151.004 46.5436 151.274 46.4291C151.548 46.3147 151.754 46.1544 151.892 45.9484C152.029 45.7424 152.098 45.5043 152.098 45.2342Z" fill="#000080"/>
<path d="M158.464 47.9468C157.914 47.9468 157.418 47.8575 156.974 47.679C156.534 47.4958 156.159 47.2418 155.847 46.9167C155.541 46.5916 155.305 46.2094 155.14 45.7699C154.975 45.3303 154.893 44.8565 154.893 44.3483V44.0736C154.893 43.4922 154.978 42.9657 155.147 42.4941C155.316 42.0226 155.552 41.6197 155.854 41.2855C156.156 40.9467 156.514 40.688 156.926 40.5095C157.338 40.3309 157.784 40.2417 158.265 40.2417C158.796 40.2417 159.26 40.3309 159.659 40.5095C160.057 40.688 160.387 40.9398 160.648 41.2649C160.913 41.5854 161.11 41.9676 161.238 42.4117C161.371 42.8558 161.437 43.3457 161.437 43.8813V44.5887H155.696V43.4006H159.803V43.2701C159.794 42.9726 159.734 42.6933 159.624 42.4323C159.519 42.1714 159.357 41.9608 159.137 41.8005C158.917 41.6403 158.624 41.5602 158.258 41.5602C157.983 41.5602 157.738 41.6197 157.523 41.7387C157.312 41.8532 157.136 42.0203 156.994 42.24C156.852 42.4598 156.742 42.7253 156.665 43.0367C156.591 43.3434 156.555 43.6891 156.555 44.0736V44.3483C156.555 44.6734 156.598 44.9755 156.685 45.2548C156.777 45.5295 156.91 45.7699 157.084 45.9759C157.258 46.1819 157.468 46.3444 157.715 46.4635C157.963 46.5779 158.244 46.6351 158.56 46.6351C158.958 46.6351 159.313 46.555 159.624 46.3948C159.936 46.2345 160.206 46.0079 160.435 45.7149L161.307 46.5596C161.147 46.7931 160.938 47.0174 160.682 47.2326C160.426 47.4432 160.112 47.6149 159.741 47.7477C159.375 47.8804 158.949 47.9468 158.464 47.9468Z" fill="#000080"/>
<path d="M164.39 41.7937V47.8095H162.735V40.379H164.315L164.39 41.7937ZM166.663 40.3309L166.65 41.8692C166.549 41.8509 166.439 41.8372 166.32 41.828C166.206 41.8189 166.091 41.8143 165.977 41.8143C165.693 41.8143 165.443 41.8555 165.228 41.9379C165.013 42.0157 164.832 42.1302 164.686 42.2813C164.544 42.4278 164.434 42.6063 164.356 42.8169C164.278 43.0275 164.232 43.2633 164.219 43.5242L163.841 43.5517C163.841 43.0847 163.887 42.6521 163.978 42.2538C164.07 41.8555 164.207 41.5052 164.39 41.2031C164.578 40.9009 164.812 40.6651 165.091 40.4957C165.375 40.3264 165.702 40.2417 166.073 40.2417C166.174 40.2417 166.281 40.2508 166.396 40.2691C166.515 40.2874 166.604 40.308 166.663 40.3309Z" fill="#000080"/>
<path d="M170.241 46.4978L172.061 40.379H173.778L171.196 47.8095H170.125L170.241 46.4978ZM168.847 40.379L170.701 46.5253L170.791 47.8095H169.719L167.124 40.379H168.847Z" fill="#000080"/>
<path d="M176.573 40.379V47.8095H174.911V40.379H176.573ZM174.801 38.4287C174.801 38.1769 174.884 37.9686 175.049 37.8037C175.218 37.6344 175.451 37.5497 175.749 37.5497C176.042 37.5497 176.273 37.6344 176.443 37.8037C176.612 37.9686 176.697 38.1769 176.697 38.4287C176.697 38.6759 176.612 38.8819 176.443 39.0467C176.273 39.2116 176.042 39.294 175.749 39.294C175.451 39.294 175.218 39.2116 175.049 39.0467C174.884 38.8819 174.801 38.6759 174.801 38.4287Z" fill="#000080"/>
<path d="M181.421 46.6283C181.692 46.6283 181.934 46.5756 182.149 46.4703C182.369 46.3604 182.545 46.2094 182.678 46.0171C182.815 45.8248 182.891 45.6028 182.905 45.351H184.464C184.454 45.8317 184.313 46.2689 184.038 46.6626C183.763 47.0563 183.399 47.3699 182.946 47.6034C182.493 47.8323 181.991 47.9468 181.442 47.9468C180.874 47.9468 180.38 47.8507 179.959 47.6584C179.537 47.4615 179.187 47.1914 178.908 46.848C178.629 46.5047 178.418 46.1086 178.276 45.66C178.139 45.2113 178.07 44.7306 178.07 44.2178V43.9775C178.07 43.4647 178.139 42.984 178.276 42.5353C178.418 42.0821 178.629 41.6838 178.908 41.3404C179.187 40.9971 179.537 40.7292 179.959 40.5369C180.38 40.3401 180.872 40.2417 181.435 40.2417C182.03 40.2417 182.552 40.3607 183.001 40.5988C183.45 40.8322 183.802 41.1596 184.058 41.5808C184.319 41.9974 184.454 42.4827 184.464 43.0367H182.905C182.891 42.762 182.822 42.5147 182.699 42.295C182.58 42.0707 182.41 41.8921 182.191 41.7593C181.975 41.6266 181.717 41.5602 181.415 41.5602C181.08 41.5602 180.803 41.6289 180.584 41.7662C180.364 41.899 180.192 42.0821 180.069 42.3156C179.945 42.5445 179.856 42.8032 179.801 43.0916C179.75 43.3754 179.725 43.6707 179.725 43.9775V44.2178C179.725 44.5246 179.75 44.8222 179.801 45.1106C179.851 45.399 179.938 45.6577 180.062 45.8866C180.19 46.1109 180.364 46.2918 180.584 46.4291C180.803 46.5619 181.083 46.6283 181.421 46.6283Z" fill="#000080"/>
<path d="M189.01 47.9468C188.46 47.9468 187.964 47.8575 187.52 47.679C187.08 47.4958 186.705 47.2418 186.393 46.9167C186.087 46.5916 185.851 46.2094 185.686 45.7699C185.521 45.3303 185.439 44.8565 185.439 44.3483V44.0736C185.439 43.4922 185.523 42.9657 185.693 42.4941C185.862 42.0226 186.098 41.6197 186.4 41.2855C186.702 40.9467 187.059 40.688 187.472 40.5095C187.884 40.3309 188.33 40.2417 188.811 40.2417C189.342 40.2417 189.806 40.3309 190.205 40.5095C190.603 40.688 190.933 40.9398 191.194 41.2649C191.459 41.5854 191.656 41.9676 191.784 42.4117C191.917 42.8558 191.983 43.3457 191.983 43.8813V44.5887H186.242V43.4006H190.349V43.2701C190.34 42.9726 190.28 42.6933 190.17 42.4323C190.065 42.1714 189.903 41.9608 189.683 41.8005C189.463 41.6403 189.17 41.5602 188.804 41.5602C188.529 41.5602 188.284 41.6197 188.069 41.7387C187.858 41.8532 187.682 42.0203 187.54 42.24C187.398 42.4598 187.288 42.7253 187.211 43.0367C187.137 43.3434 187.101 43.6891 187.101 44.0736V44.3483C187.101 44.6734 187.144 44.9755 187.231 45.2548C187.323 45.5295 187.455 45.7699 187.629 45.9759C187.803 46.1819 188.014 46.3444 188.261 46.4635C188.508 46.5779 188.79 46.6351 189.106 46.6351C189.504 46.6351 189.859 46.555 190.17 46.3948C190.482 46.2345 190.752 46.0079 190.981 45.7149L191.853 46.5596C191.693 46.7931 191.484 47.0174 191.228 47.2326C190.972 47.4432 190.658 47.6149 190.287 47.7477C189.921 47.8804 189.495 47.9468 189.01 47.9468Z" fill="#000080"/>
</svg>
