<svg width="70" height="59" viewBox="0 0 70 59" fill="none" xmlns="http://www.w3.org/2000/svg">
<g clip-path="url(#clip0_13288_113536)">
<path fill-rule="evenodd" clip-rule="evenodd" d="M34.8153 7.62891C50.0806 7.62891 62.5339 18.5641 62.5339 31.8996C62.5339 37.5006 60.3914 42.5681 56.7759 46.7021H12.8546C9.23918 42.5681 7.09668 37.5006 7.09668 31.8996C7.09668 18.4307 19.55 7.62891 34.8153 7.62891Z" fill="#ED1C24"/>
<path d="M8.03437 42.9685L8.43609 43.902L3.88328 46.169L3.48156 45.3689L5.35625 41.9017L2.41031 43.3686L2.00859 42.4351L6.5614 40.0347L6.96312 40.8348L4.95453 44.3021L8.03437 42.9685ZM3.74937 37.3676L2.27641 38.3011L4.01719 38.5678L3.74937 37.3676ZM5.08844 38.7011L6.29359 38.8345L6.5614 39.9013L1.07125 39.2345L0.803437 38.4344L5.35625 35.1005L5.62406 36.1674L4.55281 36.8341L5.08844 38.7011ZM0 32.8335H0.937344L1.07125 33.767L5.35625 33.3669V34.4337L1.07125 34.7005L1.20516 35.6339H0.267812L0 32.8335ZM5.22234 31.7666L0 31.6333V30.5664L5.22234 30.6998V31.7666ZM2.67812 28.2994C2.94594 28.2994 3.07984 28.2994 3.34766 28.2994C3.61547 28.2994 3.74937 28.166 3.88328 28.0327C4.15109 27.8993 4.285 27.766 4.41891 27.6326C4.55281 27.4992 4.68672 27.2325 4.68672 27.0992C4.82062 26.6991 4.68672 26.299 4.41891 25.899C4.15109 25.4989 3.74937 25.3656 3.34766 25.2322C2.94594 25.0988 2.54422 25.2322 2.1425 25.4989C1.74078 25.7656 1.60687 26.0323 1.47297 26.4324C1.33906 26.8325 1.47297 27.2325 1.74078 27.6326C2.00859 28.0327 2.27641 28.2994 2.67812 28.2994ZM2.54422 29.3662C2.27641 29.3662 2.00859 29.2329 1.74078 29.0995C1.47297 28.9662 1.33906 28.8328 1.20516 28.6994C0.937344 28.4327 0.669531 28.0327 0.535625 27.6326C0.401719 27.2325 0.401719 26.8325 0.535625 26.299C0.669531 25.899 0.803437 25.6323 0.937344 25.3656C1.07125 24.9655 1.33906 24.8321 1.60687 24.5654C1.87469 24.4321 2.27641 24.2987 2.54422 24.1654C2.94594 24.1654 3.21375 24.1654 3.61547 24.1654C4.01719 24.2987 4.285 24.4321 4.55281 24.5654C4.95453 24.8321 5.08844 25.0988 5.35625 25.3656C5.62406 25.6323 5.75797 26.0323 5.75797 26.299C5.89187 26.6991 5.75797 26.9658 5.75797 27.3659C5.62406 27.766 5.49016 28.0327 5.35625 28.2994C5.08844 28.5661 4.95453 28.8328 4.55281 28.9662C4.285 29.0995 3.88328 29.2329 3.61547 29.3662C3.21375 29.4996 2.94594 29.4996 2.54422 29.3662ZM6.82922 23.0985L6.4275 24.032L1.74078 21.8983L2.1425 21.0982L6.02578 20.5648L3.07984 19.2312L3.48156 18.1644L8.16828 20.298L7.76656 21.0982L3.74937 21.6316L6.82922 23.0985ZM8.43609 16.2974L6.69531 15.764L7.63265 17.2309L8.43609 16.2974ZM8.30219 18.1644L8.97172 19.0978L8.30219 19.898L5.35625 15.2305L5.89187 14.5638L11.2481 16.0307L10.5786 16.8308L9.37344 16.6974L8.30219 18.1644ZM13.2567 13.897L11.382 15.764L7.76656 12.1634L8.43609 11.4966L11.5159 14.5638L12.7211 13.3636L13.2567 13.897ZM14.8636 9.36288L14.9975 9.22953C15.3992 8.96282 15.5331 8.82946 15.667 8.56275C15.8009 8.29604 15.667 8.02933 15.5331 7.89597C15.5331 7.62926 15.2653 7.49591 15.1314 7.49591C14.8636 7.49591 14.5958 7.62926 14.328 7.76262L14.0602 8.02933L14.8636 9.36288ZM16.3366 11.4966L15.5331 12.03L12.7211 7.89597L13.7923 7.22919C14.0602 6.96248 14.328 6.82913 14.5958 6.82913C14.7297 6.69577 14.8636 6.69577 15.1314 6.69577C15.3992 6.69577 15.8009 6.69577 16.0687 6.82913C16.3366 6.96248 16.6044 7.09584 16.7383 7.36255C17.0061 7.62926 17.0061 8.02933 17.0061 8.42939C17.0061 8.82946 16.8722 9.09617 16.6044 9.36288L18.4791 10.163L17.5417 10.8298L15.1314 9.6296L16.3366 11.4966ZM16.8722 5.0955L17.8095 4.69544L19.1486 7.36255C19.4164 7.76262 19.5503 8.02933 19.6842 8.16268C19.8181 8.29604 20.0859 8.29604 20.2198 8.16268C20.4877 8.02933 20.4877 7.89597 20.6216 7.76262C20.6216 7.49591 20.4877 7.22919 20.3537 6.82913L19.0147 4.16202L19.952 3.76195L21.425 6.69577C21.5589 6.96248 21.6928 7.22919 21.6928 7.49591C21.6928 7.62926 21.6928 7.89597 21.6928 8.02933C21.6928 8.29604 21.5589 8.56275 21.425 8.69611C21.2911 8.96282 21.0233 9.09617 20.7555 9.22953C20.4877 9.36288 20.2198 9.49624 19.952 9.49624C19.6842 9.49624 19.4164 9.36288 19.1486 9.22953C19.0147 9.09617 18.8808 8.96282 18.7469 8.82946C18.613 8.69611 18.4791 8.4294 18.3452 8.16268L16.8722 5.0955ZM23.4336 5.0955H23.7014C24.1031 4.96215 24.3709 4.82879 24.5048 4.56208C24.6387 4.29537 24.7727 4.16202 24.6387 3.8953C24.5048 3.62859 24.3709 3.49524 24.237 3.36188C23.9692 3.22853 23.7014 3.36188 23.4336 3.36188L22.898 3.49524L23.4336 5.0955ZM24.1031 7.62926L23.1658 7.89597L21.6928 2.96181L22.898 2.56175C23.2997 2.42839 23.5675 2.42839 23.7014 2.42839C23.8353 2.42839 24.1031 2.42839 24.237 2.42839C24.5048 2.42839 24.7727 2.56175 25.0405 2.82846C25.3083 2.96181 25.4422 3.22853 25.4422 3.49524C25.5761 3.8953 25.5761 4.29537 25.4422 4.56208C25.3083 4.82879 25.0405 5.0955 24.7727 5.36222L26.5134 6.96248L25.4422 7.22919L23.4336 5.22886L24.1031 7.62926ZM29.3255 4.29537L28.522 2.6951L28.1203 4.42873L29.3255 4.29537ZM27.8525 5.49557L27.5847 6.56242L26.5134 6.69577L27.7186 1.36155L28.522 1.22819L31.2001 6.02899L30.2628 6.16235L29.7272 5.0955L27.8525 5.49557ZM34.4139 5.89564L31.7358 6.02899L31.468 0.828125H32.4053L32.6731 5.0955L34.28 4.96215L34.4139 5.89564ZM38.565 4.02866L38.2972 6.16235L37.2259 6.02899L37.8955 0.828125L38.8328 0.961481L38.565 3.09517L40.1719 3.22853L40.4397 1.09484L41.5109 1.22819L40.9753 6.29571L39.9041 6.16235L40.1719 4.16202L38.565 4.02866ZM44.5908 7.36255L41.9126 6.69577L43.1178 1.62826L45.7959 2.29504L45.5281 3.22853L43.7873 2.82846L43.5195 4.02866L45.2603 4.42873L44.9925 5.22886L43.3856 4.82879L43.1178 6.02899L44.8586 6.42906L44.5908 7.36255ZM48.4741 6.56242V4.82879L47.2689 6.16235L48.4741 6.56242ZM46.7333 6.96248L45.9298 7.76262L44.9925 7.36255L48.7419 3.22853L49.5453 3.62859V9.09617L48.4741 8.69611V7.49591L46.7333 6.96248ZM52.0895 10.6964L49.8131 9.36288L52.2234 4.96215L53.1608 5.49557L51.1522 9.22953L52.6251 10.0297L52.0895 10.6964ZM57.5797 8.29604L57.044 9.09617L56.2406 8.42939L53.8303 11.8966L53.0269 11.3632L55.4372 7.89597L54.6337 7.36255L55.1694 6.56242L57.5797 8.29604ZM57.3119 12.03L55.8389 13.6303L55.0355 12.9635L58.517 9.09617L59.3205 9.76295L57.9814 11.3632L59.1866 12.4301L60.5256 10.8298L61.329 11.4966L57.8475 15.3639L57.044 14.6971L58.517 13.0968L57.3119 12.03ZM60.2578 18.6978L59.7222 17.8976L64.1411 15.2305L64.8106 16.4307L62.2664 19.4979L66.1497 18.6978L66.8192 19.898L62.4003 22.5651L61.8647 21.765L65.0784 19.898L61.1951 20.6981L60.7934 20.0313L63.3376 16.9642L60.2578 18.6978ZM62.6681 23.4986L67.4887 21.6316L67.8905 22.5651L63.0698 24.4321L62.6681 23.4986ZM64.9445 24.6988L65.0784 25.6323H64.9445C64.6767 25.6323 64.5428 25.7656 64.4089 25.899C64.275 26.0323 64.275 26.1657 64.275 26.4324C64.275 26.5658 64.4089 26.8325 64.5428 26.8325C64.6767 26.9658 64.8106 26.9658 65.0784 26.9658C65.3462 26.8325 65.614 26.5658 65.614 26.1657V26.0323C65.614 25.6323 65.748 25.2322 66.0158 25.0988C66.1497 24.8321 66.4175 24.6988 66.8192 24.6988C67.3548 24.5654 67.7565 24.6988 68.0244 24.8321C68.4261 25.0988 68.56 25.3656 68.6939 25.7656C68.8278 26.1657 68.6939 26.5658 68.56 26.8325C68.2922 27.0992 68.0244 27.3659 67.6226 27.4992L67.4887 26.5658C67.6226 26.5658 67.7565 26.4324 67.8905 26.299C68.0244 26.1657 68.0244 26.0323 68.0244 25.899C68.0244 25.7656 67.8905 25.6323 67.7565 25.4989C67.6226 25.3656 67.4887 25.3656 67.3548 25.4989C67.2209 25.4989 67.2209 25.4989 67.2209 25.6323L67.087 25.7656C66.9531 25.899 66.9531 26.1657 66.9531 26.4324C66.9531 26.5658 66.9531 26.6991 66.9531 26.8325C66.9531 27.2325 66.8192 27.4992 66.5514 27.766C66.4175 28.0327 66.1497 28.166 65.748 28.166C65.2123 28.2994 64.8106 28.166 64.4089 28.0327C64.0072 27.766 63.7394 27.4992 63.7394 26.9658C63.6055 26.5658 63.7394 26.1657 64.0072 25.7656C64.1411 25.0988 64.5428 24.8321 64.9445 24.6988ZM65.748 28.4327L65.8819 29.3662H65.748C65.4801 29.3662 65.3462 29.4996 65.2123 29.6329C65.0784 29.7663 65.0784 29.8996 65.0784 30.1664C65.0784 30.4331 65.2123 30.5664 65.3462 30.5664C65.4801 30.6998 65.614 30.6998 65.8819 30.6998C66.1497 30.6998 66.4175 30.4331 66.5514 29.8996V29.7663C66.6853 29.3662 66.8192 29.0995 66.9531 28.8328C67.2209 28.5661 67.4887 28.4327 67.7565 28.4327C68.2922 28.4327 68.6939 28.4327 68.9617 28.6994C69.2295 28.9662 69.4973 29.2329 69.4973 29.7663C69.4973 30.1664 69.4973 30.5664 69.2295 30.8331C68.9617 31.0999 68.6939 31.2332 68.1583 31.3666L68.0244 30.4331C68.1583 30.4331 68.2922 30.2997 68.4261 30.2997C68.56 30.1664 68.56 30.033 68.56 29.8996C68.56 29.7663 68.4261 29.6329 68.4261 29.4996C68.2922 29.3662 68.1583 29.3662 68.0244 29.3662C67.8905 29.3662 67.8905 29.3662 67.8905 29.3662C67.8905 29.3662 67.7565 29.3662 67.7565 29.4996C67.6226 29.6329 67.6226 29.7663 67.4887 30.1664C67.4887 30.2997 67.4887 30.4331 67.4887 30.5664C67.3548 30.9665 67.2209 31.2332 67.087 31.3666C66.8192 31.4999 66.5514 31.6333 66.2836 31.6333C65.748 31.6333 65.3462 31.6333 64.9445 31.3666C64.5428 31.0998 64.4089 30.6998 64.4089 30.2997C64.4089 29.8997 64.5428 29.4996 64.8106 29.0995C64.8106 28.6995 65.2123 28.5661 65.748 28.4327ZM64.4089 32.5668L69.6312 32.7001V33.767L64.4089 33.6336V32.5668ZM66.6853 35.9007C66.4175 35.9007 66.2836 35.9007 66.0158 35.9007C65.748 35.9007 65.6141 36.034 65.4801 36.1674C65.3462 36.3007 65.0784 36.4341 64.9445 36.5674C64.8106 36.7008 64.6767 36.9675 64.6767 37.1009C64.5428 37.5009 64.6767 37.901 64.9445 38.3011C65.2123 38.7011 65.614 38.8345 66.0158 38.9678C66.4175 39.1012 66.8192 38.9678 67.2209 38.7011C67.6226 38.4344 67.7565 38.1677 67.8905 37.6343C68.0244 37.2342 67.8905 36.8341 67.6226 36.4341C67.4887 36.3007 67.087 36.034 66.6853 35.9007ZM66.8192 34.8338C67.087 34.8338 67.3548 34.9672 67.6226 35.1005C67.8905 35.2339 68.0244 35.3672 68.2922 35.5006C68.56 35.7673 68.8278 36.1674 68.9617 36.5674C69.0956 36.9675 69.0956 37.3676 68.9617 37.901C68.9617 38.3011 68.8278 38.5678 68.56 38.8345C68.4261 39.1012 68.1583 39.3679 67.8905 39.5013C67.6226 39.768 67.2209 39.9013 66.9531 39.9013C66.5514 40.0347 66.2836 40.0347 65.8819 39.9013C65.4801 39.768 65.2123 39.768 64.9445 39.5013C64.6767 39.3679 64.4089 39.1012 64.1411 38.8345C63.8733 38.5678 63.7394 38.1677 63.7394 37.901C63.6055 37.5009 63.6055 37.2342 63.7394 36.8341C63.8733 36.4341 64.0072 36.1674 64.1411 35.7673C64.275 35.5006 64.5428 35.2339 64.9445 35.1005C65.2123 34.9672 65.614 34.8338 65.8819 34.7005C66.1497 34.8338 66.4175 34.8338 66.8192 34.8338ZM62.4003 41.2349L62.802 40.3014L67.3548 42.7018L66.9531 43.5019L63.0698 43.902L66.0158 45.3689L65.614 46.3024L61.0612 43.902L61.463 43.1019L65.4801 42.7018L62.4003 41.2349Z" fill="#081B1D"/>
<path fill-rule="evenodd" clip-rule="evenodd" d="M24.7728 18.1641C26.2458 18.1641 27.4509 19.4976 27.4509 21.2312C27.4509 22.9649 26.2458 24.2984 24.7728 24.2984C23.2998 24.2984 22.0947 22.9649 22.0947 21.2312C22.0947 19.4976 23.2998 18.1641 24.7728 18.1641ZM17.0062 30.9662C17.5419 31.3663 18.2114 31.2329 18.6131 30.8328L22.0947 26.5655V24.9652C22.0947 24.9652 22.0947 24.9652 21.9608 24.8318C21.4251 24.4318 20.7556 24.5651 20.3539 24.9652L16.7384 29.2326C16.4706 29.8994 16.4706 30.5661 17.0062 30.9662ZM32.5393 30.8328C32.0037 31.2329 31.3342 31.0996 30.9325 30.6995L27.317 26.4321C27.1831 26.2988 27.1831 26.1654 27.0492 26.032V25.3653C27.0492 25.0986 27.1831 24.9652 27.4509 24.8318C27.9865 24.4318 28.6561 24.5651 29.0578 24.9652L32.6733 29.2326C32.9411 29.766 32.9411 30.4328 32.5393 30.8328ZM21.559 28.1657L22.6303 26.8322V25.2319H26.6475V26.5655L27.8526 28.1657V33.6333C27.8526 34.1667 27.4509 34.5668 26.9153 34.5668H22.4964C21.9608 34.5668 21.559 34.1667 21.559 33.6333V28.1657ZM22.7642 35.3669C23.2998 35.3669 23.8354 35.767 23.8354 36.4338V43.2349C23.8354 43.7683 23.4337 44.3018 22.7642 44.3018C22.2286 44.3018 21.6929 43.9017 21.6929 43.2349V36.4338C21.6929 35.9004 22.0947 35.3669 22.7642 35.3669ZM26.6475 35.3669C27.1831 35.3669 27.7187 35.767 27.7187 36.4338V43.2349C27.7187 43.7683 27.317 44.3018 26.6475 44.3018C26.1118 44.3018 25.5762 43.9017 25.5762 43.2349V36.4338C25.7101 35.9004 26.1118 35.3669 26.6475 35.3669ZM46.4656 20.031C47.8047 20.031 48.8759 21.2312 48.8759 22.8315C48.8759 24.4318 47.8047 25.632 46.4656 25.632C45.1265 25.632 44.0553 24.4318 44.0553 22.8315C43.9214 21.2312 44.9926 20.031 46.4656 20.031ZM40.5737 32.033C40.9754 32.2998 41.645 32.2998 41.9128 31.7663L45.1265 27.3656C45.3943 26.9655 45.3943 26.2988 44.8587 26.032C44.457 25.7653 43.7875 25.7653 43.5197 26.2988L40.3059 30.6995C40.0381 31.0996 40.172 31.7663 40.5737 32.033ZM52.6253 31.8997C52.2236 32.1664 51.554 32.1664 51.2862 31.7663L47.8047 27.6323C47.4029 27.2322 47.5368 26.6988 47.9386 26.2988C48.3403 26.032 49.0098 26.032 49.2776 26.4321L52.7592 30.5661C53.1609 30.9662 53.027 31.633 52.6253 31.8997ZM47.269 27.2322L47.4029 27.7657L50.8845 37.7673C51.0184 38.3008 50.4828 38.8342 49.8132 38.8342H42.984C42.4484 38.8342 41.7789 38.3008 41.9128 37.7673L45.2604 28.0324L45.5282 27.2322C46.1978 25.7653 46.5995 25.632 47.269 27.2322ZM44.457 39.6343C44.9926 39.6343 45.3943 40.0344 45.3943 40.5678V43.5016C45.3943 44.0351 44.9926 44.4351 44.457 44.4351C43.9214 44.4351 43.5197 44.0351 43.5197 43.5016V40.5678C43.5197 40.0344 43.9214 39.6343 44.457 39.6343ZM48.3403 39.6343C48.8759 39.6343 49.2776 40.0344 49.2776 40.5678V43.5016C49.2776 44.0351 48.8759 44.4351 48.3403 44.4351C47.8047 44.4351 47.4029 44.0351 47.4029 43.5016V40.5678C47.4029 40.0344 47.8047 39.6343 48.3403 39.6343ZM36.5565 34.5668L36.6904 34.8335L39.1008 40.5678C39.2347 40.8345 38.8329 41.1012 38.5651 41.1012H33.6106C33.2089 41.1012 32.8072 40.8345 32.9411 40.5678L35.4853 34.9669L35.6192 34.5668C35.887 33.6333 36.1548 33.6333 36.5565 34.5668ZM36.2887 30.5661C36.9583 30.5661 37.6278 31.2329 37.6278 32.033C37.6278 32.8332 37.0922 33.5 36.2887 33.5C35.6192 33.5 34.9497 32.8332 34.9497 32.033C34.9497 31.2329 35.4853 30.5661 36.2887 30.5661ZM35.0836 41.5013C35.3514 41.5013 35.6192 41.768 35.6192 42.0347V43.7683C35.6192 44.0351 35.3514 44.3018 35.0836 44.3018C34.8158 44.3018 34.5479 44.0351 34.5479 43.7683V42.1681C34.5479 41.768 34.8158 41.5013 35.0836 41.5013ZM37.2261 41.5013C37.4939 41.5013 37.7617 41.768 37.7617 42.0347V43.7683C37.7617 44.0351 37.4939 44.3018 37.2261 44.3018C36.9582 44.3018 36.6904 44.0351 36.6904 43.7683V42.1681C36.5565 41.768 36.8243 41.5013 37.2261 41.5013ZM40.9754 32.4331C40.8415 34.0334 39.3686 35.2336 37.4939 35.6336L36.9583 34.3001C38.2973 34.1667 39.3686 33.3666 39.6364 32.4331H40.9754ZM34.6818 35.6336C32.8072 35.1002 31.4681 33.7667 31.4681 32.1664C31.4681 32.033 31.4681 31.7663 31.4681 31.633L32.8072 31.7663C32.8072 31.8997 32.8072 32.033 32.8072 32.033C32.8072 33.0999 33.7445 34.0334 35.2175 34.3001L34.6818 35.6336Z" fill="white"/>
<path fill-rule="evenodd" clip-rule="evenodd" d="M34.9488 11.096C35.0827 11.096 35.3505 11.096 35.4845 11.2294L35.8862 10.4293L35.6184 11.2294C35.8862 11.3627 36.0201 11.4961 36.154 11.6295L37.3591 10.696L36.4218 11.8962C36.5557 12.0295 36.6896 12.1629 36.6896 12.4296L37.493 12.1629L36.6896 12.5629C36.6896 12.6963 36.8235 12.8297 36.8235 13.0964L38.8321 13.2297L36.8235 13.3631C36.8235 13.4964 36.8235 13.6298 36.6896 13.8965L37.493 14.2966L36.6896 14.0299C36.5557 14.1632 36.5557 14.2966 36.4218 14.4299L37.3591 15.6301L36.154 14.4299C36.0201 14.5633 35.8862 14.6966 35.6184 14.6966L35.8862 15.4968L35.4845 14.6966C35.3505 14.6966 35.2166 14.83 35.0827 14.83L34.8149 16.9637L34.681 14.9634C34.5471 14.9634 34.2793 14.9634 34.1454 14.83L33.6098 15.4968L33.8776 14.6966C33.7437 14.5633 33.6098 14.5633 33.4759 14.4299L32.4046 15.4968L33.342 14.2966C33.208 14.1632 33.0741 14.0299 33.0741 13.7631L32.2707 14.0299L33.0741 13.6298C33.0741 13.4964 32.9402 13.3631 32.9402 13.0964L30.9316 12.963L32.9402 12.8297C32.9402 12.6963 32.9402 12.5629 33.0741 12.2962L32.2707 11.8962L33.0741 12.1629C33.208 12.0295 33.208 11.8962 33.342 11.7628L32.4046 10.5626L33.6098 11.4961C33.7437 11.3627 33.8776 11.2294 34.1454 11.2294L33.8776 10.4293L34.2793 11.2294C34.4132 11.2294 34.5471 11.096 34.681 11.096L34.8149 9.0957L34.9488 11.096Z" fill="#FFF200"/>
<path d="M14.4618 49.5037H14.194V50.1705C14.194 50.3038 14.194 50.3038 14.194 50.4372C14.194 50.5705 14.0601 50.5705 14.0601 50.7039C13.9262 50.8373 13.7923 50.8373 13.6584 50.8373L13.7923 51.104C13.7923 51.104 13.7923 51.2373 13.9262 51.2373C13.9262 51.2373 13.9262 51.3707 14.0601 51.3707C14.0601 51.504 14.194 51.6374 14.3279 51.7707C14.4618 51.9041 14.4618 52.0375 14.4618 52.0375L14.194 52.3042L14.0601 52.0375L13.7923 51.6374C13.3906 51.504 13.2567 51.2373 13.1228 51.104C13.1228 50.9706 12.9889 50.9706 12.9889 50.8373C12.9889 50.7039 12.855 50.5705 12.855 50.4372L12.7211 50.1705L13.1228 49.9038V50.0371C13.1228 50.1705 13.2567 50.1705 13.2567 50.3038C13.3906 50.4372 13.3906 50.4372 13.5245 50.4372H13.6584C13.6584 50.4372 13.6584 50.4372 13.6584 50.3038V50.1705V49.5037H12.3193V49.1036H14.4618V49.5037V49.5037ZM15.2653 49.5037H14.9975V52.3042H14.5957V49.5037H14.0601V49.1036H15.2653V49.5037ZM16.8721 51.104C16.7382 51.2373 16.6043 51.2373 16.4704 51.2373C16.3365 51.2373 16.2026 51.2373 16.0687 51.104C15.9348 50.9706 15.8009 50.9706 15.8009 50.8373C15.667 50.7039 15.667 50.5705 15.667 50.4372V49.5037H15.2653V49.1036H16.4704V49.5037H16.0687L16.8721 50.5705V51.104ZM16.7382 50.7039L16.0687 49.7704V50.4372C16.0687 50.5705 16.0687 50.5705 16.0687 50.5705L16.2026 50.7039C16.2026 50.7039 16.2026 50.7039 16.3365 50.7039C16.3365 50.7039 16.3365 50.7039 16.4704 50.7039C16.6043 50.8373 16.7382 50.8373 16.7382 50.7039ZM18.8807 49.5037H18.479V50.4372H17.5417C17.4078 50.4372 17.4078 50.4372 17.2739 50.5705C17.2739 50.7039 17.14 50.8373 17.14 50.9706C17.14 51.104 17.14 51.2373 17.2739 51.3707C17.4078 51.504 17.4078 51.6374 17.5417 51.6374C17.6756 51.7707 17.8095 51.7707 17.9434 51.7707C18.0773 51.7707 18.2112 51.7707 18.2112 51.6374C18.3451 51.504 18.3451 51.504 18.479 51.3707L18.8807 51.6374C18.7468 51.7707 18.6129 52.0375 18.479 52.0375C18.3451 52.1708 18.2112 52.1708 17.9434 52.1708C17.6756 52.1708 17.5417 52.1708 17.4078 52.0375C17.2739 51.9041 17.14 51.7707 17.0061 51.504C16.8721 51.2373 16.8721 51.104 16.8721 50.8373C16.8721 50.5705 16.8721 50.4372 17.0061 50.3038C17.14 50.1705 17.2739 50.0371 17.5417 50.0371H18.2112V49.5037H16.4704V49.1036H19.0146V49.5037H18.8807ZM19.1486 52.8376L18.8807 53.1043L18.2112 52.3042L17.6756 53.1043L17.2739 52.8376L17.9434 52.0375H18.2112L19.1486 52.8376ZM19.952 49.5037H19.6842V52.3042H19.2825V49.5037H18.7468V49.1036H19.1486C19.1486 49.1036 19.1486 48.9703 19.0146 48.8369C19.0146 48.7036 18.8807 48.4369 18.7468 48.3035C18.6129 48.1701 18.479 48.0368 18.3451 48.0368C18.2112 48.0368 18.0773 48.0368 18.0773 48.1701C17.9434 48.3035 17.9434 48.3035 17.9434 48.4369C17.9434 48.5702 17.9434 48.5702 17.9434 48.7036C17.9434 48.8369 17.9434 48.8369 18.0773 48.9703C18.0773 48.9703 18.0773 49.1036 18.2112 49.1036H17.8095V48.9703L17.6756 48.8369V48.7036C17.6756 48.5702 17.6756 48.5702 17.6756 48.4369C17.6756 48.3035 17.6756 48.1701 17.6756 48.1701C17.6756 48.0368 17.8095 48.0368 17.8095 47.9034C17.9434 47.7701 18.2112 47.6367 18.3451 47.6367C18.479 47.6367 18.7468 47.7701 18.8807 47.9034C19.0146 48.0368 19.1486 48.1701 19.2825 48.4369C19.4164 48.5702 19.4164 48.8369 19.5503 48.9703C19.6842 49.1036 19.6842 49.237 19.6842 49.237H20.0859V49.5037H19.952ZM22.4962 49.5037H22.2284V52.3042H21.8267V51.504C21.6928 51.6374 21.6928 51.6374 21.5589 51.6374C21.425 51.6374 21.425 51.6374 21.2911 51.6374C21.1571 51.6374 20.8893 51.6374 20.7554 51.504C20.6215 51.3707 20.4876 51.2373 20.3537 51.104C20.2198 50.9706 20.2198 50.7039 20.2198 50.4372H20.3537C20.4876 50.4372 20.6215 50.4372 20.6215 50.3038C20.7554 50.1705 20.7554 50.1705 20.7554 49.9038C20.7554 49.7704 20.7554 49.7704 20.6215 49.6371C20.6215 49.5037 20.4876 49.5037 20.4876 49.5037H19.6842V49.1036H22.3623V49.5037H22.4962ZM21.8267 50.8373V49.5037H21.1571C21.2911 49.6371 21.2911 49.9038 21.2911 50.0371C21.2911 50.4372 21.1571 50.7039 20.7554 50.8373C20.7554 50.9706 20.8893 51.104 20.8893 51.104L21.0232 51.2373H21.1571C21.2911 51.2373 21.2911 51.2373 21.425 51.2373C21.425 51.2373 21.5589 51.2373 21.5589 51.104C21.5589 51.104 21.5589 51.104 21.6928 50.9706C21.6928 50.9706 21.6928 50.8373 21.8267 50.8373ZM26.3795 49.5037H26.1117V52.3042H25.71V49.5037H25.0404V50.9706C25.0404 51.104 25.0404 51.2373 24.9065 51.2373C24.9065 51.2373 24.7726 51.2373 24.6387 51.104C24.5048 50.9706 24.3709 50.8373 24.3709 50.7039C24.237 50.5705 24.237 50.4372 24.237 50.4372V50.3038H24.3709H24.6387V49.5037H23.8353V49.1036H26.5134V49.5037H26.3795ZM25.71 51.2373L24.6387 52.1708L24.3709 51.7707L25.71 50.9706V51.2373ZM27.4507 49.5037H27.1829V52.3042H26.7812V49.5037H26.2456V49.1036H27.4507V49.5037ZM29.995 49.5037H29.7271V52.3042H29.3254V50.9706H28.522V51.3707V51.504C28.522 51.504 28.522 51.6374 28.3881 51.6374C28.3881 51.6374 28.2542 51.6374 28.1203 51.504C27.9864 51.3707 27.9864 51.2373 27.8525 51.104C27.7186 50.9706 27.7186 50.8373 27.7186 50.8373V50.7039H28.1203V49.7704H27.4507V49.3703H29.995V49.5037ZM29.3254 50.4372V49.5037H28.522V50.4372H29.3254ZM31.0662 49.5037H30.7984V52.3042H30.3967V49.5037H29.8611V49.1036H30.2628C30.2628 49.1036 30.2628 48.9703 30.1289 48.8369C30.1289 48.7036 29.995 48.4369 29.8611 48.3035C29.7271 48.1701 29.5932 48.0368 29.4593 48.0368C29.3254 48.0368 29.1915 48.0368 29.1915 48.1701C29.0576 48.3035 29.0576 48.3035 29.0576 48.4369C29.0576 48.5702 29.0576 48.5702 29.0576 48.7036C29.0576 48.8369 29.0576 48.8369 29.1915 48.9703C29.1915 48.9703 29.1915 49.1036 29.3254 49.1036H28.9237V48.9703L28.7898 48.8369V48.7036C28.7898 48.5702 28.7898 48.5702 28.7898 48.4369C28.7898 48.3035 28.7898 48.1701 28.7898 48.1701C28.7898 48.0368 28.9237 48.0368 28.9237 47.9034C29.0576 47.7701 29.3254 47.6367 29.4593 47.6367C29.5932 47.6367 29.8611 47.7701 29.995 47.9034C30.1289 48.0368 30.2628 48.1701 30.3967 48.4369C30.5306 48.5702 30.5306 48.8369 30.6645 48.9703C30.6645 49.1036 30.7984 49.237 30.7984 49.237H31.334V49.5037H31.0662ZM32.9409 49.5037L32.807 50.7039C32.807 50.8373 32.807 50.9706 32.6731 51.104C32.6731 51.2373 32.5392 51.3707 32.4053 51.3707C32.2714 51.504 32.1375 51.504 32.0036 51.504C31.8696 51.504 31.7357 51.504 31.6018 51.3707C31.4679 51.2373 31.4679 51.2373 31.334 51.104C31.334 50.9706 31.2001 50.8373 31.2001 50.7039V49.5037H30.7984V49.1036H32.807V49.5037H32.9409ZM32.4053 50.5705V49.3703H31.8696V50.5705C31.8696 50.8373 32.0036 50.9706 32.1375 50.9706C32.2714 50.9706 32.4053 50.8373 32.4053 50.5705ZM34.0121 49.5037H33.7443V52.3042H33.3426V49.5037H32.807V49.1036H34.0121V49.5037ZM37.6276 50.7039H37.092L36.8242 50.3038H37.4937V50.7039H37.6276ZM37.2259 49.5037H36.8242V50.1705C36.8242 50.4372 36.8242 50.5705 36.6903 50.5705L36.5564 50.7039H36.4225L36.5564 50.9706L36.6903 51.2373C36.6903 51.3707 36.8242 51.504 36.9581 51.6374L37.092 51.7707L36.6903 52.0375L36.5564 51.9041L36.2886 51.504C36.2886 51.3707 36.1546 51.3707 36.1546 51.2373C36.1546 51.104 36.0207 51.104 36.0207 50.9706C35.8868 50.8373 35.7529 50.5705 35.7529 50.4372C35.619 50.1705 35.619 50.1705 35.619 50.0371L35.8868 49.7704C35.8868 49.7704 35.8868 49.9038 36.0207 50.0371C36.1546 50.1705 36.1546 50.3038 36.2886 50.3038C36.4225 50.3038 36.4225 50.1705 36.4225 50.0371V49.3703H35.2173V48.9703H37.2259V49.5037V49.5037ZM39.5023 49.5037H39.2345V52.3042H38.8328V51.504C38.8328 51.504 38.8328 51.504 38.6989 51.6374H38.565H38.431C38.1632 51.6374 38.0293 51.504 37.8954 51.3707C37.7615 51.2373 37.6276 50.9706 37.6276 50.7039C37.6276 50.5705 37.6276 50.4372 37.7615 50.3038C37.7615 50.1705 37.8954 50.0371 38.0293 50.0371C38.1632 49.9038 38.2971 49.9038 38.431 49.9038C38.565 49.9038 38.6989 49.9038 38.6989 50.0371V50.4372C38.6989 50.4372 38.6989 50.4372 38.565 50.3038H38.431C38.2971 50.3038 38.2971 50.3038 38.1632 50.4372C38.0293 50.5705 38.0293 50.7039 38.0293 50.8373C38.0293 50.9706 38.0293 51.104 38.1632 51.2373C38.2971 51.3707 38.2971 51.3707 38.431 51.3707C38.565 51.3707 38.565 51.3707 38.6989 51.2373L38.8328 51.104V50.9706V49.6371H37.092V49.237H39.5023V49.5037V49.5037ZM40.5735 49.5037H40.3057V52.3042H39.904V49.5037H39.3684V49.1036H40.5735V49.5037ZM42.85 50.7039H42.3143L42.0465 50.3038H42.85V50.7039ZM42.4482 49.5037H42.0465V50.1705C42.0465 50.4372 42.0465 50.5705 41.9126 50.5705L41.7787 50.7039H41.6448L41.7787 50.9706L41.9126 51.2373C41.9126 51.3707 42.0465 51.504 42.1804 51.6374L42.3143 51.7707L41.9126 52.0375L41.7787 51.9041L41.5109 51.504C41.5109 51.3707 41.377 51.3707 41.377 51.2373C41.377 51.104 41.2431 51.104 41.2431 50.9706C41.1092 50.8373 40.9753 50.5705 40.9753 50.4372C40.8414 50.1705 40.8414 50.1705 40.8414 50.0371L41.1092 49.7704C41.1092 49.7704 41.1092 49.9038 41.2431 50.0371C41.377 50.1705 41.377 50.3038 41.5109 50.3038C41.6448 50.3038 41.6448 50.1705 41.6448 50.0371V49.3703H40.4396V48.9703H42.4482V49.5037V49.5037ZM44.4568 51.2373C44.189 51.504 43.9212 51.6374 43.6534 51.6374C43.3856 51.6374 43.2517 51.6374 43.1178 51.504C42.9839 51.3707 42.85 51.2373 42.716 51.104C42.5821 50.9706 42.5821 50.7039 42.5821 50.5705C42.716 50.5705 42.85 50.7039 42.9839 50.7039C43.1178 50.7039 43.1178 50.7039 43.2517 50.7039C43.3856 50.7039 43.3856 50.5705 43.5195 50.4372C43.6534 50.3038 43.6534 50.1705 43.6534 50.0371C43.6534 49.9038 43.6534 49.7704 43.5195 49.6371C43.5195 49.5037 43.3856 49.5037 43.2517 49.5037C43.1178 49.5037 42.9839 49.6371 42.9839 49.7704C42.9839 49.7704 42.9839 49.9038 43.1178 49.9038H43.2517V50.1705C43.1178 50.1705 43.1178 50.1705 42.9839 50.1705C42.85 50.1705 42.85 50.0371 42.716 50.0371C42.5821 49.9038 42.5821 49.7704 42.5821 49.6371C42.5821 49.5037 42.5821 49.3703 42.716 49.3703C42.716 49.237 42.85 49.237 42.9839 49.1036C43.1178 49.1036 43.1178 48.9703 43.2517 48.9703C43.3856 48.9703 43.5195 48.9703 43.6534 49.1036C43.7873 49.237 43.9212 49.3703 43.9212 49.5037C44.0551 49.6371 44.0551 49.7704 44.0551 50.0371C44.0551 50.1705 44.0551 50.4372 43.9212 50.5705C43.7873 50.7039 43.7873 50.8373 43.6534 50.9706C43.5195 51.104 43.3856 51.104 43.2517 51.104L43.3856 51.2373C43.5195 51.3707 43.5195 51.3707 43.7873 51.3707C43.9212 51.3707 44.0551 51.3707 44.0551 51.2373C44.189 51.2373 44.189 51.104 44.3229 50.9706C44.4568 50.8373 44.4568 50.8373 44.4568 50.7039C44.4568 50.5705 44.5907 50.5705 44.5907 50.5705V51.2373H44.4568ZM46.5993 49.5037H46.3315V52.3042H45.9298V51.504C45.7959 51.6374 45.7959 51.6374 45.662 51.6374C45.5281 51.6374 45.5281 51.6374 45.3942 51.6374C45.2603 51.6374 44.9925 51.6374 44.8585 51.504C44.7246 51.3707 44.5907 51.2373 44.4568 51.104C44.3229 50.9706 44.3229 50.7039 44.3229 50.4372H44.4568C44.5907 50.4372 44.7246 50.4372 44.7246 50.3038C44.8585 50.1705 44.8585 50.1705 44.8585 49.9038C44.8585 49.7704 44.8585 49.7704 44.7246 49.6371C44.7246 49.5037 44.5907 49.5037 44.5907 49.5037H43.7873V49.1036H46.4654V49.5037H46.5993ZM45.9298 50.8373V49.5037H45.2603C45.3942 49.6371 45.3942 49.9038 45.3942 50.0371C45.3942 50.4372 45.2603 50.7039 44.8585 50.8373C44.8585 50.9706 44.9925 51.104 44.9925 51.104L45.1264 51.2373H45.2603C45.3942 51.2373 45.3942 51.2373 45.5281 51.2373C45.5281 51.2373 45.662 51.2373 45.662 51.104C45.662 51.104 45.662 51.104 45.7959 50.9706C45.7959 50.9706 45.7959 50.8373 45.9298 50.8373ZM50.8843 48.9703H50.4826C50.4826 48.9703 50.4826 48.8369 50.3487 48.8369L50.2148 48.7036L50.0809 48.5702C49.947 48.4369 49.8131 48.3035 49.6792 48.3035C49.5453 48.1701 49.4114 48.1701 49.2775 48.1701C49.1435 48.1701 49.0096 48.1701 48.8757 48.3035C48.7418 48.4369 48.7418 48.5702 48.7418 48.7036V48.8369V48.9703V49.1036H49.0096V49.5037H48.7418V52.3042H48.3401V49.5037H47.8045V49.1036H48.3401V48.9703C48.3401 48.8369 48.3401 48.7036 48.3401 48.7036C48.3401 48.5702 48.3401 48.3035 48.474 48.1701C48.6079 48.0368 48.6079 47.9034 48.7418 47.7701C48.8757 47.7701 48.8757 47.6367 49.0096 47.6367C49.1435 47.6367 49.1435 47.6367 49.2775 47.6367C49.5453 47.6367 49.8131 47.7701 50.0809 47.9034C50.2148 48.0368 50.3487 48.0368 50.4826 48.1701C50.6165 48.3035 50.6165 48.3035 50.7504 48.4369C50.7504 48.7036 50.7504 48.8369 50.8843 48.9703ZM51.5539 49.5037H51.286V52.3042H50.8843V50.9706H50.0809V51.3707V51.504C50.0809 51.504 50.0809 51.6374 49.947 51.6374C49.947 51.6374 49.8131 51.6374 49.6792 51.504C49.5453 51.3707 49.5453 51.2373 49.4114 51.104C49.2775 50.9706 49.2775 50.8373 49.2775 50.8373V50.7039H49.4114V49.7704H48.7418V49.3703H51.286V49.5037H51.5539ZM50.8843 50.4372V49.5037H50.0809V50.4372H50.8843ZM53.6964 49.5037H53.1607C53.1607 49.6371 53.2946 49.6371 53.2946 49.7704C53.2946 49.9038 53.2946 49.9038 53.2946 50.0371C53.2946 50.1705 53.2946 50.4372 53.1607 50.5705C53.0268 50.7039 53.0268 50.8373 52.8929 50.9706C52.759 50.9706 52.759 51.104 52.6251 51.104C52.4912 51.104 52.4912 51.104 52.3573 51.104L52.4912 51.2373C52.6251 51.3707 52.6251 51.3707 52.6251 51.3707L53.0268 51.7707L52.759 52.1708L52.6251 52.0375L52.3573 51.7707L52.0895 51.504L51.8217 51.104L51.6878 50.8373L51.9556 50.4372L52.0895 50.5705C52.0895 50.5705 52.0895 50.5705 52.2234 50.5705C52.4912 50.4372 52.6251 50.3038 52.6251 50.0371C52.4912 50.1705 52.3573 50.1705 52.2234 50.1705C52.0895 50.1705 51.9556 50.1705 51.8217 50.0371C51.6878 49.9038 51.6878 49.7704 51.6878 49.5037C51.6878 49.3703 51.6878 49.237 51.8217 49.237H51.286V48.8369H53.5625V49.5037H53.6964ZM52.8929 49.7704V49.6371L52.759 49.5037L52.6251 49.3703C52.6251 49.3703 52.4912 49.3703 52.4912 49.5037C52.4912 49.5037 52.3573 49.6371 52.3573 49.7704C52.3573 49.9038 52.3573 49.9038 52.4912 50.0371C52.4912 50.0371 52.6251 50.1705 52.759 50.1705C52.8929 50.1705 52.8929 50.1705 52.8929 50.0371C52.8929 49.9038 52.8929 49.9038 52.8929 49.7704ZM54.7676 49.5037H54.4998V52.3042H54.0981V49.5037H53.5625V49.1036H54.7676V49.5037ZM57.3118 49.5037H57.044V52.3042H56.6423V50.7039H55.8389V51.104C55.8389 51.2373 55.8389 51.3707 55.7049 51.3707C55.7049 51.3707 55.571 51.3707 55.4371 51.2373L55.3032 51.104C55.3032 51.104 55.1693 50.9706 55.1693 50.8373C55.0354 50.7039 55.0354 50.5705 55.0354 50.5705C55.0354 50.4372 55.0354 50.4372 55.0354 50.4372H55.1693H56.5084V49.7704H54.6337V49.3703H57.1779V49.5037H57.3118Z" fill="#081B1D"/>
<path d="M24.1027 58.3045H23.701L23.4332 58.1711C23.2993 58.0378 23.2993 58.0378 23.1654 57.7711C23.0315 57.6377 23.0315 57.371 22.8976 57.1043C22.8976 56.9709 22.7637 56.8376 22.7637 56.7042C22.7637 56.5709 22.7637 56.4375 22.7637 56.1708C22.7637 55.9041 22.7637 55.504 22.8976 55.2373C23.0315 54.9706 23.0315 54.7039 23.1654 54.5705C23.1654 54.4372 23.2993 54.4372 23.2993 54.3038L23.4332 54.1705L23.5671 54.0371H24.1027L23.9688 54.1705C23.8349 54.3038 23.8349 54.4372 23.701 54.5705C23.701 54.7039 23.5671 54.7039 23.5671 54.8372C23.5671 54.9706 23.4332 55.104 23.4332 55.2373C23.4332 55.504 23.2993 55.7707 23.2993 56.1708C23.2993 56.3042 23.2993 56.5709 23.2993 56.7042C23.2993 56.8376 23.2993 56.9709 23.4332 57.1043C23.5671 57.371 23.5671 57.5044 23.701 57.7711C23.8349 57.9044 23.8349 58.0378 23.9688 58.1711L24.1027 58.3045ZM26.513 57.6377H24.5045V57.1043C24.7723 56.9709 24.9062 56.8376 25.174 56.7042C25.4418 56.5709 25.5757 56.3042 25.7096 56.1708C25.8435 56.0374 25.8435 55.7707 25.8435 55.7707C25.8435 55.6374 25.8435 55.504 25.7096 55.504C25.5757 55.504 25.4418 55.3707 25.3079 55.3707C25.174 55.3707 25.174 55.3707 25.0401 55.504C24.9062 55.504 24.7723 55.6374 24.7723 55.6374L24.6384 55.504L24.9062 54.9706C24.9062 54.9706 25.0401 54.8372 25.174 54.8372C25.3079 54.8372 25.4418 54.8372 25.4418 54.8372C25.5757 54.8372 25.8435 54.8372 25.9774 54.9706C26.1113 54.9706 26.2452 55.104 26.3791 55.2373C26.513 55.3707 26.513 55.504 26.513 55.7707C26.513 55.9041 26.513 56.0374 26.3791 56.3042C26.3791 56.4375 26.2452 56.4375 26.2452 56.5709C26.1113 56.7042 26.1113 56.7042 25.9774 56.8376C25.8435 56.9709 25.8435 56.9709 25.7096 57.1043C25.5757 57.2376 25.5757 57.2376 25.4418 57.2376H26.647L26.513 57.6377ZM28.9234 56.3042C28.9234 56.5709 28.9234 56.8376 28.7895 56.9709C28.7895 57.2376 28.6555 57.371 28.5216 57.5044C28.3877 57.6377 28.1199 57.7711 27.986 57.7711C27.7182 57.7711 27.5843 57.6377 27.4504 57.5044C27.3165 57.371 27.1826 57.2376 27.0487 56.9709C26.9148 56.7042 26.9148 56.5709 26.9148 56.3042C26.9148 56.0374 26.9148 55.9041 27.0487 55.6374C27.1826 55.3707 27.1826 55.2373 27.3165 55.104C27.4504 54.9706 27.5843 54.8372 27.8521 54.8372C28.1199 54.8372 28.2538 54.9706 28.3877 55.104C28.5216 55.2373 28.6555 55.3707 28.6555 55.6374C28.6555 55.7707 28.6555 55.9041 28.7895 56.0374C28.9234 56.1708 28.9234 56.1708 28.9234 56.3042ZM28.3877 56.3042C28.3877 56.0374 28.3877 55.7707 28.2538 55.504C28.2538 55.3707 28.1199 55.2373 27.8521 55.2373C27.7182 55.2373 27.5843 55.3707 27.5843 55.504C27.5843 55.6374 27.5843 55.7707 27.4504 55.7707C27.4504 55.9041 27.4504 56.0374 27.4504 56.1708C27.4504 56.4375 27.4504 56.7042 27.5843 56.8376C27.7182 57.1043 27.7182 57.1043 27.8521 57.1043C27.986 57.1043 27.986 57.1043 28.1199 56.9709C28.1199 56.8376 28.2538 56.7042 28.2538 56.5709C28.3877 56.7042 28.3877 56.5709 28.3877 56.3042ZM31.1998 56.3042C31.1998 56.5709 31.1998 56.8376 31.0659 56.9709C31.0659 57.2376 30.932 57.371 30.798 57.5044C30.6641 57.6377 30.3963 57.7711 30.2624 57.7711C29.9946 57.7711 29.8607 57.6377 29.7268 57.5044C29.5929 57.371 29.459 57.2376 29.459 56.9709C29.3251 56.7042 29.3251 56.5709 29.3251 56.3042C29.3251 56.0374 29.3251 55.9041 29.459 55.6374C29.5929 55.3707 29.5929 55.2373 29.7268 55.104C29.8607 54.9706 29.9946 54.8372 30.2624 54.8372C30.5302 54.8372 30.6641 54.9706 30.798 55.104C30.932 55.2373 31.0659 55.3707 31.0659 55.6374C31.0659 55.7707 31.0659 55.9041 31.1998 56.0374C31.1998 56.1708 31.1998 56.1708 31.1998 56.3042ZM30.6641 56.3042C30.6641 56.0374 30.6641 55.7707 30.5302 55.504C30.5302 55.3707 30.3963 55.2373 30.1285 55.2373C29.9946 55.2373 29.8607 55.3707 29.8607 55.504C29.8607 55.6374 29.8607 55.7707 29.7268 55.7707C29.7268 55.9041 29.7268 56.0374 29.7268 56.1708C29.7268 56.4375 29.7268 56.7042 29.8607 56.8376C29.9946 57.1043 29.9946 57.1043 30.1285 57.1043C30.2624 57.1043 30.2624 57.1043 30.3963 56.9709C30.3963 56.8376 30.5302 56.7042 30.5302 56.5709C30.6641 56.7042 30.6641 56.5709 30.6641 56.3042ZM33.744 56.8376C33.744 56.9709 33.744 57.1043 33.744 57.1043C33.744 57.2376 33.6101 57.2376 33.6101 57.371C33.4762 57.5044 33.3423 57.6377 33.2084 57.6377C33.0744 57.6377 32.8066 57.7711 32.6727 57.7711C32.271 57.7711 32.0032 57.6377 31.8693 57.5044C31.7354 57.371 31.7354 57.1043 31.7354 56.9709H32.1371V57.1043C32.1371 57.1043 32.1371 57.2376 32.271 57.2376C32.271 57.2376 32.4049 57.371 32.5388 57.371C32.6727 57.371 32.8066 57.371 32.9405 57.2376C33.0745 57.1043 33.0745 56.9709 33.0745 56.8376C33.0745 56.4375 32.9405 56.3042 32.5388 56.3042C32.4049 56.3042 32.271 56.3042 32.1371 56.4375C32.0032 56.4375 32.0032 56.5709 32.0032 56.5709L31.6015 56.3042L31.7354 54.9706H33.3423V55.3707H32.1371L32.0032 55.9041C32.0032 55.9041 32.1371 55.9041 32.4049 55.9041C32.5388 55.9041 32.8066 55.9041 32.9405 56.0374C33.0745 56.1708 33.2084 56.1708 33.3423 56.3042C33.6101 56.4375 33.744 56.5709 33.744 56.8376ZM36.1543 56.5709H34.1457V56.1708H36.1543V56.5709ZM38.6985 57.6377H36.6899V57.1043C36.9577 56.9709 37.0916 56.8376 37.3594 56.7042C37.6273 56.5709 37.7612 56.3042 37.8951 56.1708C38.029 56.0374 38.029 55.7707 38.029 55.7707C38.029 55.6374 38.029 55.504 37.8951 55.504C37.7612 55.504 37.6273 55.3707 37.4934 55.3707C37.3595 55.3707 37.3594 55.3707 37.2255 55.504C37.0916 55.504 36.9577 55.6374 36.9577 55.6374L36.8238 55.504L37.0916 54.9706C37.0916 54.9706 37.2255 54.8372 37.3594 54.8372C37.4934 54.8372 37.6273 54.8372 37.6273 54.8372C37.7612 54.8372 38.029 54.8372 38.1629 54.9706C38.2968 54.9706 38.4307 55.104 38.5646 55.2373C38.6985 55.3707 38.6985 55.504 38.6985 55.7707C38.6985 55.9041 38.6985 56.0374 38.5646 56.3042C38.5646 56.4375 38.4307 56.4375 38.4307 56.5709C38.2968 56.7042 38.2968 56.7042 38.1629 56.8376C38.029 56.9709 38.029 56.9709 37.8951 57.1043C37.7612 57.2376 37.7612 57.2376 37.6273 57.2376H38.8324L38.6985 57.6377ZM41.1088 56.3042C41.1088 56.5709 41.1088 56.8376 40.9749 56.9709C40.9749 57.2376 40.841 57.371 40.7071 57.5044C40.5732 57.6377 40.3054 57.7711 40.1715 57.7711C39.9037 57.7711 39.7698 57.6377 39.6359 57.5044C39.502 57.371 39.368 57.2376 39.2341 56.9709C39.1002 56.7042 39.1002 56.5709 39.1002 56.3042C39.1002 56.0374 39.1002 55.9041 39.2341 55.6374C39.368 55.3707 39.368 55.2373 39.5019 55.104C39.6359 54.9706 39.7698 54.8372 40.0376 54.8372C40.3054 54.8372 40.4393 54.9706 40.5732 55.104C40.7071 55.2373 40.841 55.3707 40.841 55.6374C40.841 55.7707 40.841 55.9041 40.9749 56.0374C41.1088 56.1708 41.1088 56.1708 41.1088 56.3042ZM40.4393 56.3042C40.4393 56.0374 40.4393 55.7707 40.3054 55.504C40.3054 55.3707 40.1715 55.2373 39.9037 55.2373C39.7698 55.2373 39.6359 55.3707 39.6359 55.504C39.6359 55.6374 39.6359 55.7707 39.5019 55.7707C39.5019 55.9041 39.5019 56.0374 39.5019 56.1708C39.5019 56.4375 39.502 56.7042 39.6359 56.8376C39.7698 57.1043 39.7698 57.1043 39.9037 57.1043C40.0376 57.1043 40.0376 57.1043 40.1715 56.9709C40.1715 56.8376 40.3054 56.7042 40.3054 56.5709C40.4393 56.7042 40.4393 56.5709 40.4393 56.3042ZM42.7157 57.5044L42.1801 57.6377V55.2373C42.0462 55.2373 41.9123 55.3707 41.7784 55.3707C41.6445 55.504 41.5105 55.504 41.5105 55.504L41.2427 55.104L42.4479 54.4372L42.7157 54.5705V57.5044ZM45.3938 57.6377H43.3852V57.1043C43.653 56.9709 43.787 56.8376 44.0548 56.7042C44.3226 56.5709 44.4565 56.3042 44.5904 56.1708C44.7243 56.0374 44.7243 55.7707 44.7243 55.7707C44.7243 55.6374 44.7243 55.504 44.5904 55.504C44.4565 55.504 44.3226 55.3707 44.1887 55.3707C44.0548 55.3707 44.0548 55.3707 43.9209 55.504C43.7869 55.504 43.653 55.6374 43.653 55.6374L43.5191 55.504L43.7869 54.9706C43.7869 54.9706 43.9209 54.8372 44.0548 54.8372C44.1887 54.8372 44.3226 54.8372 44.3226 54.8372C44.4565 54.8372 44.7243 54.8372 44.8582 54.9706C44.9921 54.9706 45.126 55.104 45.2599 55.2373C45.3938 55.3707 45.3938 55.504 45.3938 55.7707C45.3938 55.9041 45.3938 56.0374 45.2599 56.3042C45.2599 56.4375 45.126 56.4375 45.126 56.5709C44.9921 56.7042 44.9921 56.7042 44.8582 56.8376C44.7243 56.9709 44.7243 56.9709 44.5904 57.1043C44.4565 57.2376 44.4565 57.2376 44.3226 57.2376H45.5277L45.3938 57.6377ZM47.1346 56.3042C47.1346 56.7042 47.1346 56.9709 47.0007 57.2376C46.8668 57.5044 46.8668 57.7711 46.7329 57.9044C46.599 58.0378 46.599 58.1711 46.4651 58.3045L46.3312 58.4378H45.9294L46.0634 58.3045C46.1973 58.1711 46.1973 58.0378 46.3312 57.9044C46.4651 57.7711 46.4651 57.5044 46.599 57.2376C46.599 56.9709 46.7329 56.7042 46.7329 56.3042C46.7329 56.1708 46.7329 55.9041 46.7329 55.7707C46.7329 55.6374 46.7329 55.504 46.599 55.3707C46.4651 55.104 46.4651 54.9706 46.3312 54.7039C46.1973 54.5705 46.1973 54.4372 46.0634 54.3038C45.9295 54.1705 45.9294 54.1705 45.7955 54.0371H46.3312L46.4651 54.1705C46.599 54.3038 46.599 54.4372 46.7329 54.5705C46.8668 54.7039 46.8668 54.9706 47.0007 55.2373C47.0007 55.3707 47.1346 55.504 47.1346 55.6374C47.1346 56.0374 47.1346 56.1708 47.1346 56.3042Z" fill="#ED1C24"/>
</g>
<defs>
<clipPath id="clip0_13288_113536">
<rect width="69.4973" height="57.6096" fill="white" transform="translate(0 0.828125)"/>
</clipPath>
</defs>
</svg>
