<svg width="59" height="60" viewBox="0 0 59 60" fill="none" xmlns="http://www.w3.org/2000/svg">
<g clip-path="url(#clip0_13288_113545)">
<path d="M29.229 0.914062C13.9739 0.914062 1.09996 12.7864 0.0654451 28.2384C-0.460023 36.0384 2.10164 43.5591 7.24138 49.4378C12.3811 55.3165 19.5078 58.847 27.3077 59.356C35.1076 59.8815 42.6284 57.3198 48.5071 52.1801C54.3858 47.0404 57.9162 39.9137 58.4253 32.1138C59.5091 16.0213 47.2919 2.06353 31.1995 0.979746C30.5426 0.946904 29.8858 0.914062 29.229 0.914062Z" fill="white"/>
<path d="M29.295 57.6797C28.671 57.6797 28.047 57.6633 27.423 57.614C20.0993 57.1214 13.3831 53.8208 8.55541 48.287C3.71124 42.7531 1.31379 35.6757 1.80642 28.352C2.80809 13.212 15.9448 1.71733 31.0849 2.719C46.2249 3.72068 57.7196 16.8574 56.7015 31.9975C56.2088 39.3212 52.9082 46.0373 47.3744 50.8651C42.3168 55.2987 35.9455 57.6797 29.295 57.6797ZM29.2293 3.14595C15.1402 3.14595 3.23504 14.1151 2.29905 28.3849C1.82284 35.5936 4.17103 42.5397 8.93309 47.975C13.6787 53.4103 20.2635 56.6616 27.4723 57.1378C34.681 57.6141 41.6271 55.2659 47.0624 50.5038C52.4977 45.7582 55.7491 39.1734 56.2253 31.9646C57.2105 17.1037 45.9129 4.19688 31.052 3.21163C30.4445 3.16237 29.8369 3.14595 29.2293 3.14595Z" fill="#F15A29"/>
<path d="M29.262 59.4381C13.1203 59.4381 0 46.3178 0 30.1761C0 14.0508 13.1203 0.914062 29.262 0.914062C45.4038 0.914062 58.5241 14.0508 58.5241 30.1761C58.5241 46.3178 45.4038 59.4381 29.262 59.4381ZM29.262 1.14396C13.2517 1.14396 0.229893 14.1657 0.229893 30.1761C0.229893 46.1865 13.2517 59.2247 29.2785 59.2247C45.2888 59.2247 58.327 46.2029 58.327 30.1761C58.3106 14.1657 45.2888 1.14396 29.262 1.14396Z" fill="#F15A29"/>
<path d="M12.3984 30.1091C12.3984 21.1433 19.952 13.8689 29.279 13.8689C38.5897 13.8853 46.1433 21.1433 46.1433 30.1091C46.1433 32.9007 45.4044 35.5444 44.1071 37.8434C45.6178 35.3802 46.4881 32.5066 46.4881 29.4359C46.4881 20.2894 38.7703 12.8672 29.2626 12.8672C19.7549 12.8672 12.0371 20.2894 12.0371 29.4359C12.0371 32.5066 12.9074 35.3802 14.4181 37.8434C13.1373 35.5444 12.3984 32.9171 12.3984 30.1091Z" fill="#F15A29"/>
<path d="M29.2782 16.6777C29.2782 16.6777 26.3389 19.2887 26.3389 23.6402C26.3389 27.9917 29.2782 30.5698 29.2782 30.5698C29.2782 30.5698 32.2175 27.9917 32.2175 23.6402C32.2175 19.2887 29.2782 16.6777 29.2782 16.6777Z" fill="#8AC75F"/>
<path d="M19.459 20.75C19.459 20.75 19.2291 24.691 22.2998 27.7617C25.3705 30.8324 29.2787 30.5697 29.2787 30.5697C29.2787 30.5697 29.5414 26.6615 26.4707 23.5908C23.3836 20.5201 19.459 20.75 19.459 20.75Z" fill="#129B48"/>
<path d="M15.3867 30.5703C15.3867 30.5703 17.9976 33.5096 22.3492 33.5096C26.7007 33.5096 29.2788 30.5703 29.2788 30.5703C29.2788 30.5703 26.7007 27.6309 22.3492 27.6309C17.9976 27.6145 15.3867 30.5703 15.3867 30.5703Z" fill="#006838"/>
<path d="M39.0978 20.75C39.0978 20.75 35.1567 20.5201 32.086 23.5908C29.0153 26.6615 29.2781 30.5697 29.2781 30.5697C29.2781 30.5697 33.1862 30.8324 36.257 27.7617C39.3277 24.6746 39.0978 20.75 39.0978 20.75Z" fill="#129B48"/>
<path d="M43.1704 30.5702C43.1704 30.5702 40.5595 27.6309 36.2079 27.6309C31.8564 27.6309 29.2783 30.5702 29.2783 30.5702C29.2783 30.5702 31.8564 33.5095 36.2079 33.5095C40.5431 33.5095 43.1704 30.5702 43.1704 30.5702Z" fill="#006838"/>
<path d="M32.6776 34.2328L29.7711 37.6483C29.5084 37.9603 29.0814 37.9603 28.8023 37.6483L25.8958 34.2328C25.2718 33.4938 25.4853 32.9027 26.372 32.9027H32.2014C33.0881 32.8862 33.3016 33.4938 32.6776 34.2328Z" fill="#F15A29"/>
<path d="M31.0522 30.5874C31.0522 31.5562 30.264 32.3444 29.2951 32.3444C28.3263 32.3444 27.5381 31.5562 27.5381 30.5874C27.5381 29.6185 28.3263 28.8303 29.2951 28.8303C30.264 28.8139 31.0522 29.6185 31.0522 30.5874Z" fill="#F15A29"/>
<path d="M35.2225 37.8276C35.2225 38.6814 34.0895 39.3875 32.6937 39.3875C31.2979 39.3875 28.999 37.8276 28.999 37.8276C28.999 37.8276 31.3144 36.2676 32.6937 36.2676C34.0895 36.2676 35.2225 36.9737 35.2225 37.8276Z" fill="#F15A29"/>
<path d="M23.3506 37.8276C23.3506 36.9737 24.4836 36.2676 25.8794 36.2676C27.2752 36.2676 29.5741 37.8276 29.5741 37.8276C29.5741 37.8276 27.2588 39.3875 25.8794 39.3875C24.4836 39.3711 23.3506 38.6814 23.3506 37.8276Z" fill="#F15A29"/>
<path d="M22.0044 41.3082V41.768H21.5939V44.0669H21.0191V41.768H20.4608V44.0669H19.8697V43.1145H19.4263V43.1474C19.4263 43.3608 19.3442 43.5415 19.1964 43.6728C19.0486 43.8042 18.8187 43.8699 18.5232 43.8699C18.3261 43.8699 18.1455 43.8371 17.9648 43.7878V43.2623C18.1455 43.3608 18.3097 43.3937 18.4903 43.3937C18.7366 43.3937 18.8516 43.2787 18.8516 43.0488C18.8516 42.9667 18.8187 42.8846 18.7695 42.8354C18.7202 42.7861 18.6053 42.7533 18.4575 42.7533H18.2933V42.2771H18.4246C18.6545 42.2771 18.7695 42.195 18.7695 42.0308C18.7695 41.8665 18.6709 41.7844 18.4903 41.7844C18.3589 41.7844 18.2112 41.8173 18.0634 41.883V41.3575C18.1947 41.3082 18.3589 41.2754 18.5396 41.2754C18.8023 41.2754 18.9994 41.3411 19.1471 41.456C19.2949 41.571 19.3606 41.7352 19.3606 41.9486C19.3606 42.0964 19.3278 42.2114 19.2457 42.3099C19.1636 42.4084 19.065 42.4741 18.9337 42.5234C19.0486 42.5398 19.1471 42.5726 19.2293 42.6383H19.8697V41.768H19.5577V41.3082H22.0044Z" fill="#129B48"/>
<path d="M23.0212 43.6259C22.7585 43.6259 22.5122 43.5274 22.3151 43.3303C22.1181 43.1333 22.0031 42.8705 21.9539 42.5257C22.3808 42.46 22.5943 42.3286 22.5943 42.0988C22.5943 41.9674 22.5615 41.8524 22.4794 41.7703H21.7568V41.3105H24.5977V41.7703H24.1871V44.0693H23.6124V43.3796C23.5631 43.4617 23.481 43.5274 23.3825 43.5766C23.2676 43.6095 23.1526 43.6259 23.0212 43.6259ZM23.1198 43.1168C23.2676 43.1168 23.3989 43.0676 23.481 42.9855C23.5631 42.9034 23.6124 42.7556 23.6124 42.575V41.7703H23.0869C23.1362 41.8524 23.169 41.9674 23.169 42.1152C23.169 42.2958 23.1198 42.4436 23.0212 42.5585C22.9227 42.6735 22.7914 42.7556 22.6271 42.8048C22.6928 43.0183 22.857 43.1168 23.1198 43.1168Z" fill="#129B48"/>
<path d="M22.6943 44.839V44.215C22.8421 44.3792 23.0392 44.527 23.2526 44.6584C23.4661 44.7897 23.6796 44.8554 23.8602 44.8554C23.9423 44.8554 24.008 44.839 24.0573 44.8061C24.1065 44.7733 24.123 44.724 24.123 44.6584C24.123 44.6091 24.1065 44.5598 24.0573 44.5434C24.008 44.5106 23.9423 44.4941 23.8766 44.4941C23.7453 44.4941 23.5975 44.527 23.4497 44.6091V44.1165C23.5975 44.0672 23.7453 44.0508 23.8931 44.0508C24.1394 44.0508 24.3364 44.1 24.4842 44.215C24.632 44.3299 24.6977 44.4777 24.6977 44.6748C24.6977 44.8718 24.632 45.036 24.4842 45.151C24.3364 45.2823 24.1394 45.348 23.8931 45.348C23.6632 45.348 23.4497 45.2988 23.2362 45.2002C23.0063 45.0689 22.8257 44.9539 22.6943 44.839Z" fill="#129B48"/>
<path d="M26.3562 42.5257L26.5861 42.8541C26.3234 43.1989 25.9786 43.3632 25.6009 43.3632C25.3382 43.3632 25.1247 43.2975 24.9769 43.1497C24.8127 43.0019 24.747 42.7884 24.747 42.5093V41.7539H24.3857V41.3105H26.192V41.7703H25.4531L26.2906 42.6406C26.2906 42.6078 26.3234 42.575 26.3562 42.5257ZM25.2889 42.0823V42.5585C25.2889 42.6899 25.3217 42.772 25.4038 42.8377C25.4859 42.9034 25.5845 42.9362 25.6994 42.9362C25.8144 42.9362 25.9293 42.9034 26.0443 42.8377L25.2889 42.0823Z" fill="#129B48"/>
<path d="M25.9121 41.7703V41.3105H28.5559V41.7703H28.1453V44.0693H27.587V43.0019H26.9302V43.4945H26.4376L26.2898 43.1661C26.2077 42.9855 26.1748 42.8541 26.1748 42.7884C26.1748 42.6735 26.2405 42.5914 26.3555 42.5585V41.7703H25.9121V41.7703ZM27.587 41.7703H26.9302V42.5257H27.5706V41.7703H27.587Z" fill="#129B48"/>
<path d="M28.3096 41.7703V41.3105H29.7053V41.7703H29.2948V44.0528H28.7201V41.7703H28.3096Z" fill="#129B48"/>
<path d="M29.459 41.3105H31.8729V41.7703H31.4623V44.0693H30.8876V42.772H30.3786C30.3293 42.772 30.2964 42.7884 30.28 42.8048C30.2636 42.8213 30.2472 42.8705 30.2472 42.9526C30.2472 43.0347 30.2636 43.1333 30.28 43.2318H29.8202C29.7217 43.084 29.6889 42.9034 29.6889 42.7063C29.6889 42.5914 29.7217 42.4929 29.8038 42.4107C29.8859 42.3451 29.9845 42.3122 30.1322 42.3122H30.904V41.7703H29.4754V41.3105H29.459Z" fill="#129B48"/>
<path d="M34.3526 42.5081V41.3094H35.3214V41.7692H34.9109V44.0681H34.3526V42.9843H33.7286V43.4934H33.236L33.0882 43.1814C33.0225 43.0336 32.9732 42.9022 32.9732 42.8201C32.9732 42.6723 33.0389 42.5902 33.1703 42.5574V41.9662C33.1703 41.8349 33.1046 41.7692 32.9732 41.7692C32.9076 41.7692 32.8254 41.7856 32.7598 41.8184V41.3751C32.8583 41.3258 32.9732 41.293 33.1046 41.293C33.5151 41.293 33.7286 41.49 33.7286 41.8841V42.5081H34.3526V42.5081Z" fill="#129B48"/>
<path d="M35.0742 41.7703V41.3105H36.4864V41.7703H36.0759V44.0528H35.4847V41.7703H35.0742Z" fill="#129B48"/>
<path d="M36.5039 43.0183V42.575H36.8159C37.0623 42.575 37.1936 42.4764 37.1936 42.263V41.7868H36.2412V41.3105H38.1953V41.7703H37.7684V42.2794C37.7684 42.46 37.7191 42.6242 37.637 42.7392C37.5385 42.8705 37.4071 42.9362 37.2429 42.9691C37.2265 42.9691 37.1936 42.9691 37.1772 42.9691L38.0147 44.0364H37.325L36.5039 43.0183Z" fill="#129B48"/>
<path d="M40.6749 41.3105V41.7703H40.2644V44.0693H39.6897V42.5914H39.4105C39.2299 42.5914 39.0821 42.6406 38.9836 42.7227C38.885 42.8048 38.8358 42.9198 38.8358 43.084C38.8358 43.4124 38.9836 43.5766 39.2627 43.5766C39.2956 43.5766 39.312 43.5766 39.3284 43.5766V44.0528C39.2627 44.0528 39.2134 44.0528 39.1642 44.0528C38.8686 44.0528 38.6551 43.9543 38.4909 43.7737C38.3267 43.5931 38.2446 43.3467 38.2446 43.0512C38.2446 42.7556 38.3431 42.5257 38.5238 42.3615C38.7208 42.1973 39 42.0988 39.3777 42.0988H39.6732V41.7539H37.9326V41.3105H40.6749Z" fill="#129B48"/>
<path d="M10.7716 13.7212C10.9193 13.7212 11.0343 13.672 11.1328 13.5734C11.2313 13.4749 11.2806 13.36 11.2806 13.2122C11.2806 13.0808 11.2313 12.9494 11.1164 12.8509C11.0179 12.7524 10.8865 12.7031 10.7551 12.7031C10.6238 12.7031 10.4924 12.7524 10.3939 12.8509C10.2954 12.9494 10.2461 13.0808 10.2461 13.2122C10.2461 13.3435 10.3118 13.4585 10.4103 13.557C10.5252 13.6555 10.6402 13.7212 10.7716 13.7212Z" fill="black"/>
<path d="M46.4714 14.0505L46.5206 14.0834L46.964 13.5743L46.9476 13.5579C46.8819 13.5086 46.4221 13.0817 46.2086 12.8847C46.1265 12.8025 46.0937 12.7697 46.0773 12.7697C45.9952 12.6876 45.913 12.6055 45.8309 12.5234C45.0756 11.8009 44.2381 11.1112 43.3678 10.4708V10.4544L43.1215 10.2902C42.596 9.91247 42.0377 9.55121 41.4794 9.22279L41.2659 9.07501C41.0853 8.97648 40.9047 8.87796 40.7076 8.76301L40.6091 7.51502C40.5763 7.0224 40.3299 6.66114 39.903 6.43124C39.8045 6.38198 39.6567 6.3163 39.4761 6.26703H39.4596L39.1148 6.90745H39.1476C39.2954 6.94029 39.4104 6.97313 39.5089 7.03882C39.7059 7.13734 39.8045 7.30155 39.8209 7.54786L39.903 8.35249C39.7388 8.27038 39.5746 8.18828 39.4104 8.10617L39.3611 8.08975C37.095 7.03882 34.6812 6.34914 32.1688 6.05356H32.1359L32.0538 6.72682H32.0867C32.333 6.75966 32.5793 6.7925 32.8256 6.82534L32.5957 8.33607L31.5776 8.18828C31.4791 8.05691 31.3477 7.97481 31.1999 7.90912C31.3806 7.87628 31.5283 7.79418 31.6433 7.66281C31.7911 7.51502 31.8732 7.31797 31.906 7.08808C31.9553 6.75966 31.8896 6.48051 31.6926 6.25061C31.4955 6.02072 31.1999 5.88935 30.7894 5.82367C30.5267 5.79083 30.2804 5.79083 30.0505 5.84009H30.034L29.9191 6.61187L29.9519 6.59545C30.1818 6.52977 30.4117 6.49693 30.6416 6.52977C30.97 6.57903 31.1178 6.74324 31.0686 7.03882C31.0193 7.35081 30.8058 7.46576 30.4281 7.40008L30.1983 7.36723L30.0833 8.08975L30.3625 8.13902C30.8222 8.2047 31.0193 8.40175 30.97 8.74659C30.9372 8.96006 30.8551 9.09143 30.7237 9.17353C30.5924 9.25564 30.4281 9.27206 30.2475 9.25564C29.9848 9.22279 29.722 9.10785 29.4593 8.9108L29.4265 8.87796L29.3115 9.66616L29.3279 9.68258C29.5743 9.83037 29.8534 9.92889 30.1818 9.97816C30.6252 10.0438 31.0029 9.99458 31.2656 9.79753C31.5448 9.6169 31.709 9.33774 31.7582 8.97648L31.7747 8.9108L32.4972 9.02574L32.2509 10.6678L33.0719 10.7992L33.6466 6.95671C33.9915 7.0224 34.3199 7.08808 34.6319 7.15376L34.0572 10.9306L34.8782 11.0619L35.4365 7.36723C36.2247 7.58071 37.0129 7.84344 37.7683 8.13902L37.4563 8.94364C37.3249 9.28848 37.0622 9.37058 36.6517 9.20637L36.1755 9.02574L35.9291 9.64974L36.5367 11.8501L37.4727 12.2114L36.8487 9.99458C36.8651 9.99458 36.8816 9.99458 36.898 9.99458C37.1936 10.0767 37.4563 10.0438 37.6862 9.91247C37.9161 9.78111 38.0967 9.56763 38.2116 9.27206L38.5401 8.43459C38.9013 8.5988 39.279 8.76301 39.6895 8.97648L37.8997 12.4084L37.8832 12.4249L38.6058 12.8025L40.3956 9.387C40.5598 9.48553 40.7405 9.56763 40.9047 9.66616L40.9868 9.71542C41.2659 9.87963 41.5451 10.0438 41.8407 10.2409L41.0032 11.4396C40.8718 11.6367 40.7405 11.6695 40.5598 11.5546C40.4613 11.4889 40.3792 11.4068 40.3135 11.2918L40.2971 11.259L39.9194 11.8337L39.903 11.8501L39.9194 11.8666C40.0344 12.0143 40.1657 12.1457 40.3299 12.2607C40.5763 12.4084 40.8061 12.4741 41.036 12.4249C41.2659 12.3756 41.4794 12.2278 41.6436 11.9487L42.4647 10.6678C42.9737 11.0127 43.4828 11.4068 43.9754 11.8009C43.959 11.9815 43.8604 12.195 43.7291 12.3428C43.4828 12.6219 43.0558 12.5727 42.4811 12.195L42.4647 12.1786L42.4482 12.195C42.1198 12.6548 41.972 13.1145 42.0049 13.5579C42.0213 14.0013 42.2019 14.379 42.5303 14.6581C42.6946 14.8059 42.8916 14.9208 43.0722 14.9865C43.2364 15.0358 43.3842 15.0522 43.532 15.0358L42.7602 15.9061L43.3842 16.4644L45.9459 13.5908L46.4549 14.0341L46.4714 14.0505ZM44.3695 14.0998C44.1724 14.3133 43.959 14.4282 43.7455 14.4446C43.532 14.4611 43.3185 14.379 43.1215 14.1983C42.9573 14.0505 42.8588 13.8863 42.8259 13.7057C42.7931 13.5251 42.8095 13.3609 42.8916 13.1802C43.4828 13.4265 43.959 13.3444 44.3366 12.9339C44.4844 12.7697 44.583 12.6055 44.6486 12.3756C44.8785 12.5891 45.1084 12.7861 45.3383 12.9996L44.3695 14.0998Z" fill="black"/>
<path d="M53.4831 31.3572C53.5981 27.7938 52.9741 24.329 51.6276 21.0613L51.5947 20.9792C51.5126 20.7657 51.4305 20.5851 51.3484 20.4044L52.0217 19.3535C52.2844 18.943 52.3172 18.4996 52.1202 18.0562C52.0709 17.9577 51.9888 17.8264 51.8903 17.6621L51.8739 17.6457L51.217 17.9577L51.2335 17.9906C51.332 18.1055 51.3977 18.204 51.4469 18.319C51.5454 18.516 51.529 18.7131 51.3977 18.9101L50.9707 19.5998C50.8886 19.4356 50.8065 19.2714 50.7244 19.1072L50.6916 19.0415C49.8705 17.4487 48.8688 15.9379 47.7194 14.575L47.703 14.5586L47.1939 14.9855L47.2103 15.002C47.6044 15.4782 47.9821 15.9708 48.3598 16.4963C48.2941 16.5948 48.1792 16.6769 48.0642 16.7426C47.7358 16.9232 47.3581 16.7262 46.9312 16.1678L46.9148 16.1514L46.8983 16.1678C46.4386 16.4963 46.143 16.8739 46.0116 17.2845C45.8802 17.7114 45.9131 18.1219 46.1266 18.4996C46.2415 18.6967 46.3729 18.8609 46.5371 18.9922C46.6684 19.0908 46.8162 19.1564 46.9476 19.1893L45.9131 19.7312L46.3072 20.4701L49.7063 18.6638L50.0347 19.2878L50.0676 19.2714C50.1989 19.5177 50.3139 19.764 50.4288 19.9939L46.8983 21.5867L46.8819 21.6032L47.2268 22.3421L50.7737 20.7328C51.2991 21.9152 51.7261 23.1467 52.0545 24.3947L51.3812 24.5753L50.6916 22.26V22.2272L50.0019 22.4242V22.4406C50.1004 22.7526 50.1004 23.0154 50.0347 23.2124C49.969 23.4095 49.8213 23.5408 49.6078 23.6065C49.4107 23.6722 49.2465 23.6558 49.1152 23.5572C48.9838 23.4587 48.8688 23.3109 48.8032 23.0975C48.7375 22.8676 48.7211 22.6213 48.7703 22.3914L48.7867 22.3421L48.0478 22.5556V22.572C48.0314 22.8347 48.0478 23.1303 48.1463 23.4259C48.2613 23.82 48.4747 24.0991 48.7539 24.2798C49.0331 24.4604 49.3615 24.4932 49.7227 24.3783C50.084 24.2798 50.3139 24.0663 50.4288 23.7871L50.708 24.7231L48.3598 25.4292H48.3434L48.5733 26.201V26.2174L52.2516 25.1172C52.4814 26.1025 52.6292 27.1206 52.7278 28.1387L51.7261 28.2536L51.5783 27.0056C51.5455 26.7757 51.4798 26.6115 51.3484 26.513C51.217 26.4145 51.0692 26.3652 50.8722 26.3816C50.5766 26.4145 50.3139 26.513 50.0676 26.6936L50.0511 26.7101L50.1333 27.3833L50.1661 27.3669C50.3467 27.3012 50.5109 27.2684 50.6423 27.2519C50.7408 27.2355 50.8229 27.2519 50.8558 27.2684C50.8886 27.3012 50.9215 27.3505 50.9215 27.4162L51.02 28.3357L48.8688 28.582H48.836L48.9345 29.4195L52.7606 28.9926V29.0418C52.777 29.4523 52.7934 29.8957 52.7934 30.3555L48.9017 30.5361L48.9345 31.3572L52.777 31.2258V31.2422C52.777 31.2586 52.777 31.2751 52.777 31.2915C52.777 31.3079 52.777 31.3243 52.777 31.3736V31.4229L52.7606 31.9483L53.4339 31.9812L53.4503 31.5378V31.505V31.4393C53.4831 31.4229 53.4831 31.3736 53.4831 31.3572ZM48.0478 18.5981C47.7851 18.7295 47.5552 18.7788 47.3417 18.7131C47.1282 18.6474 46.964 18.4996 46.8327 18.2533C46.7341 18.0562 46.7013 17.8756 46.7177 17.6786C46.7506 17.4979 46.8327 17.3501 46.964 17.2188C47.4238 17.6621 47.9164 17.7442 48.4091 17.4815C48.5733 17.3994 48.7046 17.3009 48.8032 17.1531C48.951 17.383 49.1152 17.6293 49.2794 17.892L48.0478 18.5981Z" fill="black"/>
<path d="M27.3074 6.64367L28.3255 6.52873L28.2598 5.85547L27.2417 5.97041C24.4666 6.20031 21.7572 6.92283 19.2283 8.10513L19.2119 8.13797L19.4911 8.74555L19.5075 8.72912C19.8688 8.56492 20.2629 8.40071 20.7226 8.20366L21.7243 7.82598C22.0199 7.72745 22.2826 7.64535 22.5454 7.56324L22.7588 8.2365L20.4763 9.0247H20.4599L20.6898 9.69796H20.7062C21.0182 9.59943 21.2645 9.56659 21.478 9.63227C21.675 9.69796 21.8228 9.82932 21.8885 10.0428C21.9542 10.2398 21.9378 10.4041 21.8557 10.5354C21.7736 10.6832 21.6258 10.7817 21.4123 10.8638C21.1824 10.9459 20.9525 10.9624 20.7062 10.9295H20.657L20.9033 11.652H20.9525C21.2153 11.6685 21.478 11.6192 21.7736 11.5207C22.1513 11.3893 22.4304 11.1758 22.5946 10.8803C22.7588 10.5847 22.7752 10.2563 22.6603 9.91143C22.5454 9.56659 22.3319 9.3367 22.0363 9.23817L22.9723 8.90975L23.7769 11.2251L23.8098 11.2579L24.598 10.9788L23.3336 7.34977C24.3188 7.08704 25.3533 6.88998 26.3878 6.75862L26.5192 7.76029L25.2712 7.94092C25.0413 7.97376 24.8771 8.05587 24.7786 8.18724C24.6801 8.3186 24.6472 8.46639 24.6637 8.66344C24.7129 8.95902 24.8114 9.22175 24.9921 9.46806L25.0085 9.48449L25.6653 9.38596L25.6489 9.35312C25.5832 9.17249 25.534 9.0247 25.5175 8.89333C25.5011 8.79481 25.5011 8.7127 25.534 8.67986C25.5668 8.64702 25.5996 8.61418 25.6817 8.59776L26.6013 8.46639L26.9133 10.6011V10.6339L27.7344 10.519L27.2253 6.66009C27.2417 6.66009 27.2417 6.66009 27.2582 6.66009C27.2746 6.66009 27.291 6.66009 27.3074 6.64367Z" fill="black"/>
<path d="M17.16 9.99505C17.2257 9.94579 17.3078 9.91294 17.3735 9.86368L17.8497 9.56811L17.5049 8.99337L17.0287 9.28895C16.9137 9.35463 16.7988 9.43674 16.6674 9.50242L16.3554 9.04264C16.1091 8.71422 15.8135 8.53359 15.4851 8.51717H15.4687C15.1403 8.50075 14.8283 8.61569 14.5327 8.84559C14.2207 9.07548 14.0401 9.35463 13.958 9.66663C13.8759 9.99505 13.9744 10.3235 14.2207 10.6519L14.3356 10.8161L15.0089 10.3235L14.9104 10.1757C14.6805 9.8801 14.7133 9.63379 14.9761 9.42032C15.1074 9.32179 15.2388 9.28895 15.3702 9.30537C15.5015 9.32179 15.6329 9.4039 15.7314 9.55168L16.0106 9.92937C13.4161 11.67 11.1828 13.8868 9.39295 16.4977L9.32727 16.5798C8.58833 17.68 7.91507 18.8459 7.35676 20.0446H7.34034L7.14329 20.5044C6.97908 20.8657 6.83129 21.2434 6.6835 21.6046L6.47003 22.1137H6.48645C6.32224 22.5735 6.15803 23.0497 6.02667 23.5094L5.9774 23.6244H5.99383C5.94456 23.8214 5.87888 24.0021 5.82962 24.1991V24.2155L6.48645 24.3798V24.3469C6.53571 24.1663 6.58498 23.9692 6.65066 23.7722L8.25991 24.1991C8.55548 24.2812 8.76896 24.4454 8.90032 24.6753C9.03169 24.9216 9.04811 25.2008 8.96601 25.5292C8.91674 25.7263 8.83464 25.8905 8.71969 25.989C8.60475 26.0875 8.47338 26.1204 8.32559 26.0711C8.03002 25.989 7.93149 25.7427 8.04644 25.2829L8.14496 24.9216L7.43886 24.741L7.3896 25.053C7.27466 25.4964 7.0776 25.677 6.76561 25.5949C6.6014 25.5456 6.48645 25.4635 6.43719 25.3157C6.37151 25.168 6.37151 24.9873 6.43719 24.7574L6.45361 24.7246L5.78035 24.544L5.68183 25.0694H5.64899V25.1023C5.32057 26.5802 5.12352 28.0909 5.05783 29.6016C5.02499 30.2913 5.02499 30.9974 5.05783 31.687V31.7199L5.73109 31.687V31.6542C5.71467 31.2929 5.71467 30.9153 5.71467 30.4719L6.83129 30.5704C7.57023 30.6361 8.03002 30.4062 8.22707 29.8807L9.47505 31.1287L9.55716 30.0614L8.11212 28.6163L9.63926 28.7477H9.67211L9.73779 27.9102L5.91172 27.5982C5.9774 27.0728 6.05951 26.5473 6.15803 26.0383C6.24014 26.2353 6.40435 26.3503 6.63424 26.4159C6.86413 26.4816 7.0776 26.4488 7.24181 26.3174C7.37318 26.2189 7.47171 26.0875 7.55381 25.9069C7.53739 26.1204 7.58665 26.3174 7.66876 26.4816C7.76728 26.6951 7.96433 26.8429 8.22707 26.9086C8.55548 26.9907 8.86748 26.9414 9.14664 26.7279C9.40937 26.5145 9.60642 26.2025 9.70495 25.8084C9.77063 25.5621 9.78705 25.3157 9.73779 25.0859C9.70495 24.8724 9.63926 24.6917 9.52432 24.544L10.4275 24.7739L10.6409 23.9692L6.92982 23.0004C7.0776 22.5735 7.22539 22.1465 7.3896 21.736L10.9694 23.181L10.9858 23.1974L11.2978 22.4257L7.7016 20.9478C8.07928 20.0611 8.52264 19.1907 9.01527 18.3697L9.88558 18.8623L9.26158 19.9625C9.14664 20.1596 9.1138 20.3402 9.14664 20.5044C9.17948 20.6686 9.29442 20.7836 9.45863 20.8821C9.70495 21.0299 9.9841 21.0956 10.2633 21.112H10.3125L10.6409 20.5208L10.6081 20.5044C10.4275 20.4552 10.2633 20.3895 10.1647 20.3238C10.0826 20.2745 10.0169 20.2253 10.0005 20.176C9.9841 20.1267 10.0005 20.0775 10.0334 20.0118L10.4932 19.2072L12.398 20.2909L12.8085 19.5684L9.44221 17.6636L9.45863 17.6308C9.72137 17.2202 10.0005 16.8097 10.2797 16.4156L10.3125 16.3828L11.3799 17.2531C11.2978 17.4337 11.347 17.5979 11.4948 17.7293C11.5934 17.8114 11.7904 17.8935 12.1024 17.9756L12.6279 18.1234L13.0712 17.5815L12.4144 17.0068L13.1205 16.1365L14.5327 17.2859L15.0417 16.6619L12.0531 14.2316L12.086 14.1988C12.5293 13.7062 13.0055 13.23 13.4982 12.7866L14.1879 12.179C14.3685 12.0312 14.5491 11.8835 14.7297 11.7192L15.4523 12.5239C14.9925 12.4746 14.5655 12.606 14.1714 12.9344C13.8266 13.2135 13.6131 13.5255 13.5146 13.8704V13.8868L14.0236 14.4944L14.0401 14.4451C14.155 14.0674 14.3685 13.7554 14.6312 13.5255C14.9432 13.2628 15.3045 13.1807 15.6986 13.2628L15.0089 15.4139V15.4468L15.7643 15.6603L16.4047 13.6241L17.2914 14.675L17.9318 14.1331L15.4358 11.1774L15.5179 11.1117C15.8135 10.8982 16.1091 10.6847 16.4047 10.4877L18.7036 13.5584L18.72 13.5748L19.3769 13.0822L17.1108 10.0279L17.16 9.99505ZM6.96266 28.5342C7.19255 28.5507 7.37318 28.6328 7.48813 28.7641C7.60307 28.8955 7.65234 29.0597 7.63591 29.2568C7.61949 29.4374 7.55381 29.5688 7.43886 29.6509C7.32392 29.733 7.14329 29.7658 6.89697 29.7494L5.71467 29.6509C5.71467 29.4866 5.73109 29.306 5.74751 29.109L5.79677 28.4357L6.96266 28.5342ZM12.5786 15.6931L11.8725 16.5634L10.8051 15.7095C11.035 15.4139 11.2814 15.1184 11.5112 14.8392L12.5786 15.6931Z" fill="black"/>
<path d="M30.4277 52.0482L31.298 51.9333L31.3309 52.196C31.3637 52.4095 31.413 52.5408 31.4787 52.6229C31.5444 52.705 31.6429 52.7379 31.7907 52.7215C31.922 52.705 32.0206 52.6394 32.0534 52.5244C32.0862 52.4095 32.0862 52.2124 32.0534 51.9004L31.725 49.3552L32.6281 49.2402L32.9566 51.7526C33.0387 52.3438 32.9894 52.7707 32.8252 53.0499C32.661 53.329 32.349 53.4932 31.8892 53.5589C31.4622 53.6082 31.1338 53.5261 30.9039 53.3126C30.674 53.0827 30.5098 52.7215 30.4442 52.2124C30.4442 52.196 30.4442 52.1632 30.4442 52.1303C30.4277 52.0975 30.4277 52.0811 30.4277 52.0482Z" fill="black"/>
<path d="M23.9082 52.9028L24.4665 48.8633L25.7473 49.0439L25.9444 51.0801C25.9608 51.2607 25.9772 51.4414 25.9937 51.6056C26.0101 51.7698 26.0101 51.934 26.0101 52.0982C26.0593 51.934 26.125 51.7698 26.1907 51.5892C26.2564 51.4085 26.3221 51.2279 26.4042 51.0308L27.1103 49.241L28.3911 49.4216L27.8328 53.4611L26.9789 53.3462L27.2252 51.5563C27.2416 51.4249 27.2745 51.2607 27.3073 51.0308C27.3402 50.8009 27.3894 50.5382 27.4387 50.2426L26.3057 53.2641L25.3861 53.1327L25.1398 49.9306C25.1069 50.2919 25.0577 50.6203 25.0248 50.8995C24.992 51.1786 24.9591 51.4085 24.9427 51.5727L24.7292 53.0506L23.9082 52.9028Z" fill="black"/>
<path d="M19.4746 51.36L21.051 47.5996L22.5946 48.2564C22.9887 48.4207 23.235 48.6505 23.3664 48.9297C23.4813 49.2253 23.4649 49.5537 23.3007 49.9314C23.1365 50.3255 22.9066 50.5882 22.611 50.7196C22.3154 50.8509 21.987 50.8345 21.6093 50.6703L20.9032 50.3747L20.3449 51.7213L19.4746 51.36ZM21.2316 49.6194L21.8064 49.8657C21.9706 49.9314 22.0855 49.9478 22.2005 49.8985C22.299 49.8493 22.3975 49.7507 22.4632 49.603C22.5289 49.4552 22.5289 49.3238 22.4961 49.2253C22.4468 49.1268 22.3483 49.0282 22.2005 48.9625L21.6422 48.7327L21.2316 49.6194Z" fill="black"/>
<path d="M33.876 49.0765L34.8448 48.748L37.3572 52.2129L36.4048 52.5249L35.9614 51.8844L34.7955 52.2621L34.8284 53.0339L33.9088 53.3459L33.876 49.0765ZM34.7299 51.4082L35.4852 51.1619L34.6478 49.9468L34.7299 51.4082Z" fill="black"/>
<path d="M38.5892 51.6709L37.9652 50.2751L35.7812 48.4524L36.7337 48.0255L38.0145 49.257L37.9652 47.4836L38.9341 47.0566L38.8027 49.8975L39.4267 51.3097L38.5892 51.6709Z" fill="black"/>
<path d="M30.4706 50.8801L29.0098 50.9238L29.0265 51.4819L30.4873 51.4382L30.4706 50.8801Z" fill="black"/>
</g>
<defs>
<clipPath id="clip0_13288_113545">
<rect width="58.5241" height="58.5241" fill="white" transform="translate(0 0.914062)"/>
</clipPath>
</defs>
</svg>
