<svg width="231" height="231" viewBox="0 0 231 231" fill="none" xmlns="http://www.w3.org/2000/svg">
<circle cx="115.5" cy="115.5" r="115.5" fill="#D9D9D9"/>
<path d="M90.2934 152V78.0552H118.023C123.703 78.0552 128.469 79.1143 132.321 81.2325C136.196 83.3507 139.121 86.2632 141.094 89.9701C143.092 93.6529 144.091 97.8412 144.091 102.535C144.091 107.277 143.092 111.489 141.094 115.172C139.097 118.855 136.148 121.755 132.248 123.874C128.349 125.968 123.547 127.015 117.842 127.015H99.4643V116.002H116.037C119.359 116.002 122.079 115.425 124.197 114.269C126.315 113.114 127.88 111.525 128.891 109.503C129.926 107.481 130.443 105.159 130.443 102.535C130.443 99.9112 129.926 97.6005 128.891 95.6026C127.88 93.6048 126.303 92.0522 124.161 90.945C122.042 89.8136 119.31 89.248 115.965 89.248H103.689V152H90.2934Z" fill="black"/>
</svg>
